STARTFONT 2.1
COMMENT
COMMENT Converted from OpenType font "CircularStd-Bold.otf" by "otf2bdf 3.0".
COMMENT
FONT -FreeType-Circular Std Bold-Medium-R-Normal--24-170-100-100-P-123-ISO10646-1
SIZE 17 100 100
FONTBOUNDINGBOX 38 26 -1 -5
STARTPROPERTIES 19
FOUNDRY "FreeType"
FAMILY_NAME "Circular Std Bold"
WEIGHT_NAME "Medium"
SLANT "R"
SETWIDTH_NAME "Normal"
ADD_STYLE_NAME ""
PIXEL_SIZE 24
POINT_SIZE 170
RESOLUTION_X 100
RESOLUTION_Y 100
SPACING "P"
AVERAGE_WIDTH 123
CHARSET_REGISTRY "ISO10646"
CHARSET_ENCODING "1"
FONT_ASCENT 23
FONT_DESCENT 6
COPYRIGHT "Generated in 2013 by FontLab Studio. Copyright info pending."
_OTF_FONTFILE "CircularStd-Bold.otf"
_OTF_PSNAME "CircularStd-Bold"
ENDPROPERTIES
CHARS 332
STARTCHAR 0000
ENCODING 0
SWIDTH 0 0
DWIDTH 0 0
BBX 0 0 0 0
BITMAP
ENDCHAR
STARTCHAR 000D
ENCODING 13
SWIDTH 254 0
DWIDTH 6 0
BBX 0 0 0 0
BITMAP
ENDCHAR
STARTCHAR 0020
ENCODING 32
SWIDTH 254 0
DWIDTH 6 0
BBX 0 0 0 0
BITMAP
ENDCHAR
STARTCHAR 0021
ENCODING 33
SWIDTH 338 0
DWIDTH 8 0
BBX 4 17 2 0
BITMAP
F0
F0
F0
F0
F0
E0
E0
E0
60
60
60
60
00
60
F0
F0
60
ENDCHAR
STARTCHAR 0022
ENCODING 34
SWIDTH 381 0
DWIDTH 9 0
BBX 8 7 1 9
BITMAP
E6
EF
EF
EE
E6
46
46
ENDCHAR
STARTCHAR 0023
ENCODING 35
SWIDTH 762 0
DWIDTH 18 0
BBX 16 16 1 0
BITMAP
0718
0618
0638
0638
7FFF
7FFF
0C30
0C70
0C70
1C60
FFFC
FFFC
18E0
18E0
38C0
38C0
ENDCHAR
STARTCHAR 0024
ENCODING 36
SWIDTH 592 0
DWIDTH 14 0
BBX 12 21 1 -3
BITMAP
0600
0600
0600
1FC0
3FE0
79E0
70F0
7000
7800
7F80
3FC0
0FE0
00F0
E070
F070
79F0
7FE0
3FC0
0600
0600
0600
ENDCHAR
STARTCHAR 0025
ENCODING 37
SWIDTH 847 0
DWIDTH 20 0
BBX 18 16 1 0
BITMAP
3C0700
7E0E00
E71C00
C71C00
C73800
E77000
7E7000
3CE000
01CF00
019F80
039DC0
0738C0
0638C0
0E19C0
1C1F80
180F00
ENDCHAR
STARTCHAR 0026
ENCODING 38
SWIDTH 720 0
DWIDTH 17 0
BBX 14 17 2 0
BITMAP
1E00
3F80
7F80
71C0
F1C0
7380
7F80
3F08
3E08
7F18
F7B8
E3F8
E1F0
E1F0
FFF8
7F38
3E3C
ENDCHAR
STARTCHAR 0027
ENCODING 39
SWIDTH 211 0
DWIDTH 5 0
BBX 3 7 1 9
BITMAP
E0
E0
E0
E0
E0
40
40
ENDCHAR
STARTCHAR 0028
ENCODING 40
SWIDTH 338 0
DWIDTH 8 0
BBX 7 23 1 -4
BITMAP
04
0E
1C
38
38
70
70
60
E0
E0
E0
E0
E0
E0
E0
E0
70
70
38
38
1C
0E
0C
ENDCHAR
STARTCHAR 0029
ENCODING 41
SWIDTH 338 0
DWIDTH 8 0
BBX 7 23 0 -4
BITMAP
40
E0
70
38
38
1C
1C
0C
0E
0E
0E
0E
0E
0E
0E
0C
1C
1C
38
38
70
E0
40
ENDCHAR
STARTCHAR 002A
ENCODING 42
SWIDTH 465 0
DWIDTH 11 0
BBX 9 9 1 8
BITMAP
1C00
1C00
DD80
FF80
FF80
3E00
7E00
7700
2200
ENDCHAR
STARTCHAR 002B
ENCODING 43
SWIDTH 592 0
DWIDTH 14 0
BBX 12 12 1 1
BITMAP
0600
0600
0600
0600
0600
FFF0
FFF0
FFF0
0600
0600
0600
0600
ENDCHAR
STARTCHAR 002C
ENCODING 44
SWIDTH 296 0
DWIDTH 7 0
BBX 5 8 1 -4
BITMAP
70
78
F8
78
18
30
70
40
ENDCHAR
STARTCHAR 002D
ENCODING 45
SWIDTH 381 0
DWIDTH 9 0
BBX 7 3 1 6
BITMAP
FE
FE
FE
ENDCHAR
STARTCHAR 002E
ENCODING 46
SWIDTH 296 0
DWIDTH 7 0
BBX 4 4 2 0
BITMAP
E0
F0
F0
E0
ENDCHAR
STARTCHAR 002F
ENCODING 47
SWIDTH 465 0
DWIDTH 11 0
BBX 11 17 0 0
BITMAP
00E0
00C0
01C0
0180
0380
0300
0700
0700
0E00
0E00
1C00
1C00
3800
3800
7000
7000
E000
ENDCHAR
STARTCHAR 0030
ENCODING 48
SWIDTH 635 0
DWIDTH 15 0
BBX 13 16 1 0
BITMAP
0F80
3FE0
7FE0
78F0
F070
E078
E078
E078
E078
E078
F078
F070
78F0
7FE0
3FC0
0F80
ENDCHAR
STARTCHAR 0031
ENCODING 49
SWIDTH 381 0
DWIDTH 9 0
BBX 7 16 1 0
BITMAP
0E
1E
3E
FE
FE
1E
1E
1E
1E
1E
1E
1E
1E
1E
1E
1E
ENDCHAR
STARTCHAR 0032
ENCODING 50
SWIDTH 550 0
DWIDTH 13 0
BBX 11 16 1 0
BITMAP
1F00
7FC0
7FC0
F1E0
E0E0
E0E0
01E0
03C0
07C0
1F80
3E00
7800
F000
FFE0
FFE0
FFE0
ENDCHAR
STARTCHAR 0033
ENCODING 51
SWIDTH 550 0
DWIDTH 13 0
BBX 12 16 0 0
BITMAP
7FF0
7FF0
7FF0
01E0
03C0
0700
0FC0
0FE0
05F0
0070
1070
F070
78F0
7FE0
3FE0
0F80
ENDCHAR
STARTCHAR 0034
ENCODING 52
SWIDTH 592 0
DWIDTH 14 0
BBX 13 16 1 0
BITMAP
03C0
07C0
0FC0
0FC0
1DC0
3DC0
39C0
71C0
F1C0
E1C0
FFF8
FFF8
FFF8
01C0
01C0
01C0
ENDCHAR
STARTCHAR 0035
ENCODING 53
SWIDTH 550 0
DWIDTH 13 0
BBX 11 16 1 0
BITMAP
3FE0
3FE0
7FE0
7000
7000
7200
FFC0
FFE0
71E0
00E0
00E0
E0E0
F1E0
FFE0
7FC0
1F00
ENDCHAR
STARTCHAR 0036
ENCODING 54
SWIDTH 592 0
DWIDTH 14 0
BBX 12 16 1 0
BITMAP
03E0
1FE0
3FE0
3800
7000
7300
EFC0
FFE0
F8F0
F070
E070
F070
70F0
7FE0
3FC0
0F80
ENDCHAR
STARTCHAR 0037
ENCODING 55
SWIDTH 508 0
DWIDTH 12 0
BBX 12 16 0 0
BITMAP
FFF0
FFF0
FFF0
01E0
01C0
0380
0780
0700
0F00
0E00
1E00
1C00
1C00
1C00
3C00
3C00
ENDCHAR
STARTCHAR 0038
ENCODING 56
SWIDTH 550 0
DWIDTH 13 0
BBX 11 16 1 0
BITMAP
1F00
3FC0
7FE0
F0E0
E0E0
F0E0
7BC0
3F80
7FC0
71E0
E0E0
E0E0
F0E0
FFE0
7FC0
1F00
ENDCHAR
STARTCHAR 0039
ENCODING 57
SWIDTH 592 0
DWIDTH 14 0
BBX 12 16 1 0
BITMAP
1F00
3FC0
7FE0
F1E0
E0E0
E0F0
E0F0
F1F0
7FF0
3F70
0CE0
00E0
01E0
7FC0
FF80
7E00
ENDCHAR
STARTCHAR 003A
ENCODING 58
SWIDTH 296 0
DWIDTH 7 0
BBX 4 12 2 0
BITMAP
E0
F0
F0
E0
00
00
00
00
E0
F0
F0
E0
ENDCHAR
STARTCHAR 003B
ENCODING 59
SWIDTH 296 0
DWIDTH 7 0
BBX 4 15 2 -3
BITMAP
E0
F0
F0
E0
00
00
00
00
00
E0
F0
F0
30
60
C0
ENDCHAR
STARTCHAR 003C
ENCODING 60
SWIDTH 508 0
DWIDTH 12 0
BBX 10 12 1 1
BITMAP
0040
01C0
07C0
1F00
7C00
F000
F000
7C00
1F00
07C0
01C0
0040
ENDCHAR
STARTCHAR 003D
ENCODING 61
SWIDTH 592 0
DWIDTH 14 0
BBX 12 8 1 3
BITMAP
FFF0
FFF0
FFF0
0000
0000
FFF0
FFF0
FFF0
ENDCHAR
STARTCHAR 003E
ENCODING 62
SWIDTH 508 0
DWIDTH 12 0
BBX 10 12 1 1
BITMAP
8000
E000
F800
7E00
1F80
03C0
03C0
0F80
7E00
F800
E000
8000
ENDCHAR
STARTCHAR 003F
ENCODING 63
SWIDTH 508 0
DWIDTH 12 0
BBX 11 17 1 0
BITMAP
1F00
7F80
FFC0
E1E0
E1E0
E1E0
01C0
07C0
0F80
0E00
0C00
0C00
0000
0C00
1E00
1E00
0C00
ENDCHAR
STARTCHAR 0040
ENCODING 64
SWIDTH 847 0
DWIDTH 20 0
BBX 18 18 1 -1
BITMAP
03F000
0FFC00
1E1E00
380700
700380
61FD80
E3F9C0
E739C0
C619C0
CE19C0
CE3180
E63380
E7FF00
73DE00
780000
3C0C00
0FFE00
03F800
ENDCHAR
STARTCHAR 0041
ENCODING 65
SWIDTH 720 0
DWIDTH 17 0
BBX 17 17 0 0
BITMAP
03E000
03E000
03E000
07F000
077000
077000
0E7800
0E3800
1E3C00
1C1C00
1FFC00
3FFE00
3FFE00
380E00
780F00
700700
F00780
ENDCHAR
STARTCHAR 0042
ENCODING 66
SWIDTH 592 0
DWIDTH 14 0
BBX 12 17 2 0
BITMAP
FF80
FFC0
FFE0
E1E0
E0E0
E0E0
E1E0
FFC0
FF80
FFE0
E0E0
E0F0
E0F0
E0E0
FFE0
FFC0
FF80
ENDCHAR
STARTCHAR 0043
ENCODING 67
SWIDTH 762 0
DWIDTH 18 0
BBX 16 17 1 0
BITMAP
03F0
0FF8
3FFE
3C3E
780F
F007
F000
E000
E000
E000
F000
F007
780F
7E3E
3FFE
1FF8
03E0
ENDCHAR
STARTCHAR 0044
ENCODING 68
SWIDTH 720 0
DWIDTH 17 0
BBX 14 17 2 0
BITMAP
FF80
FFE0
FFF0
E0F8
E078
E03C
E01C
E01C
E01C
E01C
E01C
E03C
E078
E0F8
FFF0
FFE0
FF80
ENDCHAR
STARTCHAR 0045
ENCODING 69
SWIDTH 592 0
DWIDTH 14 0
BBX 10 17 2 0
BITMAP
FFC0
FFC0
FFC0
E000
E000
E000
E000
FFC0
FFC0
FFC0
E000
E000
E000
E000
FFC0
FFC0
FFC0
ENDCHAR
STARTCHAR 0046
ENCODING 70
SWIDTH 550 0
DWIDTH 13 0
BBX 10 17 2 0
BITMAP
FFC0
FFC0
FFC0
E000
E000
E000
E000
FFC0
FFC0
FFC0
E000
E000
E000
E000
E000
E000
E000
ENDCHAR
STARTCHAR 0047
ENCODING 71
SWIDTH 762 0
DWIDTH 18 0
BBX 16 17 1 0
BITMAP
03F0
0FFC
3FFE
3C1E
780F
F006
F000
E000
E0FF
E0FF
F0FF
F007
780F
7C1F
3FFF
1FFF
07E7
ENDCHAR
STARTCHAR 0048
ENCODING 72
SWIDTH 762 0
DWIDTH 18 0
BBX 14 17 2 0
BITMAP
E03C
E03C
E03C
E03C
E03C
E03C
E03C
FFFC
FFFC
FFFC
E03C
E03C
E03C
E03C
E03C
E03C
E03C
ENDCHAR
STARTCHAR 0049
ENCODING 73
SWIDTH 296 0
DWIDTH 7 0
BBX 3 17 2 0
BITMAP
E0
E0
E0
E0
E0
E0
E0
E0
E0
E0
E0
E0
E0
E0
E0
E0
E0
ENDCHAR
STARTCHAR 004A
ENCODING 74
SWIDTH 550 0
DWIDTH 13 0
BBX 11 17 0 0
BITMAP
00E0
00E0
00E0
00E0
00E0
00E0
00E0
00E0
00E0
00E0
F0E0
F0E0
70E0
79E0
7FE0
3FC0
1F00
ENDCHAR
STARTCHAR 004B
ENCODING 75
SWIDTH 677 0
DWIDTH 16 0
BBX 14 17 2 0
BITMAP
E07C
E078
E0F0
E1E0
E3C0
E780
EF00
FF00
FF00
FF80
FBC0
F3C0
E1E0
E0F0
E0F0
E078
E03C
ENDCHAR
STARTCHAR 004C
ENCODING 76
SWIDTH 550 0
DWIDTH 13 0
BBX 11 17 2 0
BITMAP
E000
E000
E000
E000
E000
E000
E000
E000
E000
E000
E000
E000
E000
E000
FFE0
FFE0
FFE0
ENDCHAR
STARTCHAR 004D
ENCODING 77
SWIDTH 974 0
DWIDTH 23 0
BBX 19 17 2 0
BITMAP
F003E0
F803E0
F807E0
FC07E0
FC0FE0
FC0FE0
EE0FE0
EE1DE0
EF1DE0
E73DE0
E7B9E0
E3B9E0
E3F1E0
E3F1E0
E1F1E0
E1E1E0
E0E1E0
ENDCHAR
STARTCHAR 004E
ENCODING 78
SWIDTH 762 0
DWIDTH 18 0
BBX 14 17 2 0
BITMAP
F01C
F81C
FC1C
FC1C
FE1C
FE1C
EF1C
E79C
E79C
E3DC
E1DC
E1FC
E0FC
E07C
E07C
E03C
E03C
ENDCHAR
STARTCHAR 004F
ENCODING 79
SWIDTH 804 0
DWIDTH 19 0
BBX 17 17 1 0
BITMAP
03E000
0FFC00
3FFE00
3E3F00
780F00
F00780
F00780
E00380
E00380
E00380
F00780
F00780
780F00
7E1F00
3FFE00
0FF800
03E000
ENDCHAR
STARTCHAR 0050
ENCODING 80
SWIDTH 592 0
DWIDTH 14 0
BBX 12 17 2 0
BITMAP
FF80
FFC0
FFE0
E0E0
E0F0
E0F0
E0F0
E1E0
FFE0
FFC0
FF00
E000
E000
E000
E000
E000
E000
ENDCHAR
STARTCHAR 0051
ENCODING 81
SWIDTH 804 0
DWIDTH 19 0
BBX 17 18 1 -1
BITMAP
03E000
0FFC00
3FFE00
3E3F00
780F00
F00780
F00780
E00380
E00380
E06380
F0F780
F07F80
783F00
7E3F00
3FFE00
0FFF00
03E780
000300
ENDCHAR
STARTCHAR 0052
ENCODING 82
SWIDTH 635 0
DWIDTH 15 0
BBX 12 17 2 0
BITMAP
FF80
FFC0
FFE0
E0F0
E0F0
E0F0
E0F0
E0E0
FFE0
FFC0
FF00
E780
E380
E3C0
E1C0
E1E0
E0F0
ENDCHAR
STARTCHAR 0053
ENCODING 83
SWIDTH 592 0
DWIDTH 14 0
BBX 12 17 1 0
BITMAP
0F80
3FE0
7FE0
70F0
F060
F000
7800
7F80
3FE0
0FF0
00F0
6070
E070
F0F0
7FF0
3FE0
1F80
ENDCHAR
STARTCHAR 0054
ENCODING 84
SWIDTH 635 0
DWIDTH 15 0
BBX 14 17 0 0
BITMAP
FFFC
FFFC
FFFC
0380
0380
0380
0380
0380
0380
0380
0380
0380
0380
0380
0380
0380
0380
ENDCHAR
STARTCHAR 0055
ENCODING 85
SWIDTH 677 0
DWIDTH 16 0
BBX 13 17 2 0
BITMAP
E078
E078
E078
E078
E078
E078
E078
E078
E078
E078
E078
E078
F070
F8F0
7FF0
3FE0
1F80
ENDCHAR
STARTCHAR 0056
ENCODING 86
SWIDTH 677 0
DWIDTH 16 0
BBX 16 17 0 0
BITMAP
F00F
700E
780E
781E
381C
3C1C
1C3C
1C38
1E38
0E78
0E70
0F70
07E0
07E0
07E0
03C0
03C0
ENDCHAR
STARTCHAR 0057
ENCODING 87
SWIDTH 1016 0
DWIDTH 24 0
BBX 24 17 0 0
BITMAP
F03C0F
703C0F
703E0E
787E0E
787E1E
387F1C
38F71C
3CE71C
1CE7BC
1DE3B8
1FC3B8
1FC3F8
0FC1F8
0F81F0
0F81F0
0781F0
0700E0
ENDCHAR
STARTCHAR 0058
ENCODING 88
SWIDTH 677 0
DWIDTH 16 0
BBX 14 17 1 0
BITMAP
F03C
F038
7878
38F0
3CE0
1FE0
0FC0
0FC0
0780
0FC0
0FC0
1FE0
3CE0
38F0
7878
F078
F03C
ENDCHAR
STARTCHAR 0059
ENCODING 89
SWIDTH 635 0
DWIDTH 15 0
BBX 14 17 1 0
BITMAP
E03C
F038
7078
7870
3CF0
3CE0
1FC0
0FC0
0F80
0780
0700
0700
0700
0700
0700
0700
0700
ENDCHAR
STARTCHAR 005A
ENCODING 90
SWIDTH 635 0
DWIDTH 15 0
BBX 13 17 1 0
BITMAP
FFF8
FFF8
FFF8
00F8
01F0
01E0
03C0
0780
0F80
1F00
1E00
3C00
7800
F000
FFF8
FFF8
FFF8
ENDCHAR
STARTCHAR 005B
ENCODING 91
SWIDTH 296 0
DWIDTH 7 0
BBX 5 23 2 -4
BITMAP
F8
F8
E0
E0
E0
E0
E0
E0
E0
E0
E0
E0
E0
E0
E0
E0
E0
E0
E0
E0
E0
F8
F8
ENDCHAR
STARTCHAR 005C
ENCODING 92
SWIDTH 465 0
DWIDTH 11 0
BBX 11 17 0 0
BITMAP
E000
7000
7000
3800
3800
1C00
1C00
0E00
0E00
0700
0700
0380
0380
01C0
01C0
00E0
00E0
ENDCHAR
STARTCHAR 005D
ENCODING 93
SWIDTH 296 0
DWIDTH 7 0
BBX 6 23 0 -4
BITMAP
FC
FC
1C
1C
1C
1C
1C
1C
1C
1C
1C
1C
1C
1C
1C
1C
1C
1C
1C
1C
1C
FC
FC
ENDCHAR
STARTCHAR 005E
ENCODING 94
SWIDTH 550 0
DWIDTH 13 0
BBX 11 9 1 8
BITMAP
0E00
1E00
1F00
3F00
3B80
7380
71C0
E1C0
E0E0
ENDCHAR
STARTCHAR 005F
ENCODING 95
SWIDTH 508 0
DWIDTH 12 0
BBX 12 3 0 -3
BITMAP
FFF0
FFF0
FFF0
ENDCHAR
STARTCHAR 0060
ENCODING 96
SWIDTH 296 0
DWIDTH 7 0
BBX 5 4 1 13
BITMAP
F0
70
38
38
ENDCHAR
STARTCHAR 0061
ENCODING 97
SWIDTH 550 0
DWIDTH 13 0
BBX 10 12 1 0
BITMAP
1F00
7F80
7FC0
E1C0
01C0
1FC0
7FC0
F1C0
E1C0
E3C0
7FC0
3DC0
ENDCHAR
STARTCHAR 0062
ENCODING 98
SWIDTH 592 0
DWIDTH 14 0
BBX 12 17 2 0
BITMAP
E000
E000
E000
E000
E000
EF80
FFC0
FFE0
F1E0
E0F0
E0F0
E0F0
E0E0
F0E0
FFE0
FFC0
EF00
ENDCHAR
STARTCHAR 0063
ENCODING 99
SWIDTH 550 0
DWIDTH 13 0
BBX 11 12 1 0
BITMAP
1F00
3FC0
7FE0
F0E0
E080
E000
E000
E000
F0E0
7FE0
3FC0
1F00
ENDCHAR
STARTCHAR 0064
ENCODING 100
SWIDTH 592 0
DWIDTH 14 0
BBX 12 17 1 0
BITMAP
0070
0070
0070
0070
0070
1F70
3FF0
7FF0
F0F0
E0F0
E070
E070
E0F0
F0F0
7FF0
3FF0
1F70
ENDCHAR
STARTCHAR 0065
ENCODING 101
SWIDTH 550 0
DWIDTH 13 0
BBX 11 12 1 0
BITMAP
1F00
3FC0
7FC0
F0E0
E0E0
FFE0
FFE0
E000
F0E0
7FE0
3FC0
1F00
ENDCHAR
STARTCHAR 0066
ENCODING 102
SWIDTH 338 0
DWIDTH 8 0
BBX 8 18 0 0
BITMAP
07
1F
1F
3C
38
38
FF
FF
FF
38
38
38
38
38
38
38
38
38
ENDCHAR
STARTCHAR 0067
ENCODING 103
SWIDTH 592 0
DWIDTH 14 0
BBX 12 17 1 -5
BITMAP
1E70
3FF0
7FF0
F0F0
E0F0
E070
E0F0
E0F0
F1F0
7FF0
3FF0
0CF0
60E0
E0E0
FFE0
7FC0
1F00
ENDCHAR
STARTCHAR 0068
ENCODING 104
SWIDTH 592 0
DWIDTH 14 0
BBX 10 17 2 0
BITMAP
E000
E000
E000
E000
E000
EF00
FF80
FFC0
E1C0
E1C0
E1C0
E1C0
E1C0
E1C0
E1C0
E1C0
E1C0
ENDCHAR
STARTCHAR 0069
ENCODING 105
SWIDTH 296 0
DWIDTH 7 0
BBX 4 18 1 0
BITMAP
60
F0
F0
70
00
00
70
70
70
70
70
70
70
70
70
70
70
70
ENDCHAR
STARTCHAR 006A
ENCODING 106
SWIDTH 296 0
DWIDTH 7 0
BBX 6 23 -1 -5
BITMAP
1C
3C
3C
1C
00
00
1C
1C
1C
1C
1C
1C
1C
1C
1C
1C
1C
1C
1C
1C
FC
F8
F0
ENDCHAR
STARTCHAR 006B
ENCODING 107
SWIDTH 550 0
DWIDTH 13 0
BBX 11 17 2 0
BITMAP
E000
E000
E000
E000
E000
E3C0
E7C0
E780
EF00
FE00
FE00
FE00
FF00
E780
E780
E3C0
E1E0
ENDCHAR
STARTCHAR 006C
ENCODING 108
SWIDTH 296 0
DWIDTH 7 0
BBX 3 17 2 0
BITMAP
E0
E0
E0
E0
E0
E0
E0
E0
E0
E0
E0
E0
E0
E0
E0
E0
E0
ENDCHAR
STARTCHAR 006D
ENCODING 109
SWIDTH 889 0
DWIDTH 21 0
BBX 17 12 2 0
BITMAP
EF1E00
FFBF80
FFFF80
E1E380
E1C380
E1C380
E1C380
E1C380
E1C380
E1C380
E1C380
E1C380
ENDCHAR
STARTCHAR 006E
ENCODING 110
SWIDTH 592 0
DWIDTH 14 0
BBX 10 12 2 0
BITMAP
EF00
FF80
FFC0
E1C0
E1C0
E1C0
E1C0
E1C0
E1C0
E1C0
E1C0
E1C0
ENDCHAR
STARTCHAR 006F
ENCODING 111
SWIDTH 592 0
DWIDTH 14 0
BBX 12 12 1 0
BITMAP
1F00
3FC0
7FE0
F0F0
E070
E070
E070
E070
F0E0
7FE0
3FC0
1F00
ENDCHAR
STARTCHAR 0070
ENCODING 112
SWIDTH 592 0
DWIDTH 14 0
BBX 12 17 2 -5
BITMAP
EF80
FFC0
FFE0
F0E0
E0F0
E070
E070
E0E0
F0E0
FFE0
FFC0
EF00
E000
E000
E000
E000
E000
ENDCHAR
STARTCHAR 0071
ENCODING 113
SWIDTH 592 0
DWIDTH 14 0
BBX 12 17 1 -5
BITMAP
1F70
3FF0
7FF0
F0F0
E0F0
E070
E070
E0F0
F0F0
7FF0
3FF0
1F70
0070
0070
0070
0070
0070
ENDCHAR
STARTCHAR 0072
ENCODING 114
SWIDTH 381 0
DWIDTH 9 0
BBX 7 12 2 0
BITMAP
EE
FE
FE
F0
E0
E0
E0
E0
E0
E0
E0
E0
ENDCHAR
STARTCHAR 0073
ENCODING 115
SWIDTH 465 0
DWIDTH 11 0
BBX 9 12 1 0
BITMAP
3E00
7F00
F780
E300
F000
7E00
3F80
0780
E380
F780
7F00
3E00
ENDCHAR
STARTCHAR 0074
ENCODING 116
SWIDTH 381 0
DWIDTH 9 0
BBX 8 15 0 0
BITMAP
1C
1C
3C
FF
FF
FF
3C
3C
3C
3C
3C
3C
1F
1F
0F
ENDCHAR
STARTCHAR 0075
ENCODING 117
SWIDTH 592 0
DWIDTH 14 0
BBX 10 12 2 0
BITMAP
E1C0
E1C0
E1C0
E1C0
E1C0
E1C0
E1C0
E1C0
E1C0
FFC0
7FC0
3DC0
ENDCHAR
STARTCHAR 0076
ENCODING 118
SWIDTH 550 0
DWIDTH 13 0
BBX 12 12 0 0
BITMAP
F070
7070
78F0
38E0
38E0
3DE0
1DC0
1DC0
0F80
0F80
0F80
0700
ENDCHAR
STARTCHAR 0077
ENCODING 119
SWIDTH 847 0
DWIDTH 20 0
BBX 19 12 0 0
BITMAP
F0F0E0
70F0E0
71F0E0
79F9C0
39F9C0
3BB9C0
3B9F80
1F9F80
1F1F80
1F0F00
0F0F00
0E0F00
ENDCHAR
STARTCHAR 0078
ENCODING 120
SWIDTH 550 0
DWIDTH 13 0
BBX 11 12 1 0
BITMAP
E1E0
F1C0
7B80
3F80
3F00
1E00
1F00
3F00
3F80
73C0
F1C0
E1E0
ENDCHAR
STARTCHAR 0079
ENCODING 121
SWIDTH 550 0
DWIDTH 13 0
BBX 13 17 0 -5
BITMAP
F078
7070
7870
38E0
3CE0
1DE0
1DC0
0FC0
0F80
0780
0700
0700
0F00
0E00
1E00
1C00
1C00
ENDCHAR
STARTCHAR 007A
ENCODING 122
SWIDTH 465 0
DWIDTH 11 0
BBX 9 12 1 0
BITMAP
FF80
FF80
FF80
0780
0F00
1E00
3C00
7800
F000
FF80
FF80
FF80
ENDCHAR
STARTCHAR 007B
ENCODING 123
SWIDTH 381 0
DWIDTH 9 0
BBX 8 23 1 -4
BITMAP
07
1F
1E
18
38
38
38
38
38
38
F0
E0
F8
38
38
38
38
38
38
18
1C
1F
07
ENDCHAR
STARTCHAR 007C
ENCODING 124
SWIDTH 254 0
DWIDTH 6 0
BBX 3 23 2 -4
BITMAP
E0
E0
E0
E0
E0
E0
E0
E0
E0
E0
E0
E0
E0
E0
E0
E0
E0
E0
E0
E0
E0
E0
E0
ENDCHAR
STARTCHAR 007D
ENCODING 125
SWIDTH 381 0
DWIDTH 9 0
BBX 8 23 0 -4
BITMAP
E0
F8
78
18
18
18
18
18
1C
1C
0F
07
1F
1C
18
18
18
18
18
18
78
F8
E0
ENDCHAR
STARTCHAR 007E
ENCODING 126
SWIDTH 592 0
DWIDTH 14 0
BBX 12 4 1 5
BITMAP
3C20
FFF0
FFE0
43C0
ENDCHAR
STARTCHAR 00A0
ENCODING 160
SWIDTH 254 0
DWIDTH 6 0
BBX 0 0 0 0
BITMAP
ENDCHAR
STARTCHAR 00A1
ENCODING 161
SWIDTH 296 0
DWIDTH 7 0
BBX 3 17 2 -5
BITMAP
E0
E0
E0
40
00
E0
E0
E0
E0
E0
E0
E0
E0
E0
E0
E0
E0
ENDCHAR
STARTCHAR 00A2
ENCODING 162
SWIDTH 550 0
DWIDTH 13 0
BBX 11 16 1 0
BITMAP
0E00
0E00
0F00
3FC0
7FC0
71E0
E080
E000
E000
E080
F0E0
7FC0
3FC0
1F00
0E00
0E00
ENDCHAR
STARTCHAR 00A3
ENCODING 163
SWIDTH 592 0
DWIDTH 14 0
BBX 13 16 1 0
BITMAP
0F80
1FC0
3FE0
38E0
3860
3800
3800
FF80
FF80
1C00
1C00
1C38
3870
FFF0
FFF0
FFC0
ENDCHAR
STARTCHAR 00A4
ENCODING 164
SWIDTH 592 0
DWIDTH 14 0
BBX 12 12 1 0
BITMAP
4020
EF70
7FE0
3FC0
70E0
70E0
70E0
70E0
7FC0
7FE0
EF70
4020
ENDCHAR
STARTCHAR 00A5
ENCODING 165
SWIDTH 635 0
DWIDTH 15 0
BBX 13 16 1 0
BITMAP
E078
F070
78E0
38E0
3DC0
1FC0
7FF0
7FF0
0700
0700
0700
7FF0
7FF0
0700
0700
0700
ENDCHAR
STARTCHAR 00A6
ENCODING 166
SWIDTH 254 0
DWIDTH 6 0
BBX 3 23 2 -4
BITMAP
E0
E0
E0
E0
E0
E0
E0
E0
E0
00
00
00
00
00
E0
E0
E0
E0
E0
E0
E0
E0
E0
ENDCHAR
STARTCHAR 00A7
ENCODING 167
SWIDTH 550 0
DWIDTH 13 0
BBX 10 22 2 -5
BITMAP
3E00
7F80
FF80
E3C0
E180
E000
F800
7E00
7F00
EF80
E3C0
E1C0
F980
7F80
3F00
0F80
0380
E3C0
E380
FF80
7F00
3E00
ENDCHAR
STARTCHAR 00A8
ENCODING 168
SWIDTH 423 0
DWIDTH 10 0
BBX 8 3 1 13
BITMAP
E7
E7
C6
ENDCHAR
STARTCHAR 00A9
ENCODING 169
SWIDTH 804 0
DWIDTH 19 0
BBX 17 17 1 0
BITMAP
03F000
0FFC00
3C1E00
300700
61E300
67F180
C77980
CE0180
CC0180
CE0180
C73980
E7F180
61E300
300700
3C0E00
0FFC00
03E000
ENDCHAR
STARTCHAR 00AA
ENCODING 170
SWIDTH 423 0
DWIDTH 10 0
BBX 8 9 1 7
BITMAP
3C
7E
67
07
7F
E7
E7
7F
7F
ENDCHAR
STARTCHAR 00AB
ENCODING 171
SWIDTH 508 0
DWIDTH 12 0
BBX 11 10 1 2
BITMAP
1CE0
39C0
7380
7380
E700
E700
7380
7380
39C0
1CE0
ENDCHAR
STARTCHAR 00AC
ENCODING 172
SWIDTH 592 0
DWIDTH 14 0
BBX 12 8 1 3
BITMAP
FFF0
FFF0
FFF0
0070
0070
0070
0070
0070
ENDCHAR
STARTCHAR 00AD
ENCODING 173
SWIDTH 381 0
DWIDTH 9 0
BBX 7 3 1 6
BITMAP
FE
FE
FE
ENDCHAR
STARTCHAR 00AE
ENCODING 174
SWIDTH 804 0
DWIDTH 19 0
BBX 17 17 1 0
BITMAP
03F000
0FFC00
1C1E00
300700
67E300
67F180
C73180
C73180
C7F180
C7E180
C76180
E77180
673300
300700
3C0E00
0FFC00
03E000
ENDCHAR
STARTCHAR 00AF
ENCODING 175
SWIDTH 338 0
DWIDTH 8 0
BBX 6 2 1 14
BITMAP
FC
FC
ENDCHAR
STARTCHAR 00B0
ENCODING 176
SWIDTH 381 0
DWIDTH 9 0
BBX 8 8 0 8
BITMAP
1C
7F
77
63
E3
77
7E
3C
ENDCHAR
STARTCHAR 00B1
ENCODING 177
SWIDTH 592 0
DWIDTH 14 0
BBX 12 12 1 1
BITMAP
0600
0600
0600
FFF0
FFF0
FFF0
0600
0600
0600
FFF0
FFF0
FFF0
ENDCHAR
STARTCHAR 00B2
ENCODING 178
SWIDTH 381 0
DWIDTH 9 0
BBX 7 9 1 8
BITMAP
3C
7E
E6
EE
1C
38
70
FE
FE
ENDCHAR
STARTCHAR 00B3
ENCODING 179
SWIDTH 423 0
DWIDTH 10 0
BBX 7 9 1 8
BITMAP
7E
7E
0C
38
1E
06
E6
7E
3C
ENDCHAR
STARTCHAR 00B4
ENCODING 180
SWIDTH 296 0
DWIDTH 7 0
BBX 5 4 1 13
BITMAP
78
70
E0
E0
ENDCHAR
STARTCHAR 00B5
ENCODING 181
SWIDTH 592 0
DWIDTH 14 0
BBX 10 17 2 -5
BITMAP
E1C0
E1C0
E1C0
E1C0
E1C0
E1C0
E1C0
E1C0
E1C0
FFC0
FFC0
FDC0
E000
E000
E000
E000
E000
ENDCHAR
STARTCHAR 00B6
ENCODING 182
SWIDTH 677 0
DWIDTH 16 0
BBX 14 22 1 -5
BITMAP
1FFC
7FFC
FE30
FE30
FE30
FE30
FE30
FE30
7E30
3E30
0630
0630
0630
0630
0630
0630
0630
0630
0630
0630
0630
0630
ENDCHAR
STARTCHAR 00B7
ENCODING 183
SWIDTH 296 0
DWIDTH 7 0
BBX 4 4 1 5
BITMAP
70
70
F0
70
ENDCHAR
STARTCHAR 00B8
ENCODING 184
SWIDTH 296 0
DWIDTH 7 0
BBX 5 5 1 -5
BITMAP
30
60
38
98
F8
ENDCHAR
STARTCHAR 00B9
ENCODING 185
SWIDTH 296 0
DWIDTH 7 0
BBX 4 9 1 8
BITMAP
30
70
F0
30
30
30
30
30
30
ENDCHAR
STARTCHAR 00BA
ENCODING 186
SWIDTH 465 0
DWIDTH 11 0
BBX 9 9 1 7
BITMAP
1E00
7F00
7380
E380
E180
E380
7380
7F00
1E00
ENDCHAR
STARTCHAR 00BB
ENCODING 187
SWIDTH 508 0
DWIDTH 12 0
BBX 10 10 1 2
BITMAP
E700
E700
7380
39C0
39C0
39C0
39C0
7380
E700
E700
ENDCHAR
STARTCHAR 00BC
ENCODING 188
SWIDTH 804 0
DWIDTH 19 0
BBX 17 16 1 0
BITMAP
380C00
381C00
F83800
F83000
387000
38E000
38C000
39C700
3B8F00
031F00
073700
0E7700
0C7F80
1C7F80
380700
300700
ENDCHAR
STARTCHAR 00BD
ENCODING 189
SWIDTH 847 0
DWIDTH 20 0
BBX 17 16 1 0
BITMAP
380C00
381C00
F83800
F83000
387000
38E000
38C000
39CF00
3B9F80
031980
071980
0E0780
0C0F00
1C1C00
381F80
301F80
ENDCHAR
STARTCHAR 00BE
ENCODING 190
SWIDTH 889 0
DWIDTH 21 0
BBX 19 16 1 0
BITMAP
FE0300
FE0700
0C0E00
380C00
1E1C00
063800
E63000
7E7380
3CE380
00C780
01CD80
039980
031FE0
071FE0
0E0180
0C0180
ENDCHAR
STARTCHAR 00BF
ENCODING 191
SWIDTH 508 0
DWIDTH 12 0
BBX 11 17 0 -5
BITMAP
0600
0F00
0F00
0600
0000
0600
0600
0E00
3E00
7C00
7000
F0E0
F0E0
F0E0
7FE0
3FC0
1F00
ENDCHAR
STARTCHAR 00C0
ENCODING 192
SWIDTH 720 0
DWIDTH 17 0
BBX 17 21 0 0
BITMAP
0F0000
038000
01C000
000000
03E000
03E000
03E000
07F000
077000
077000
0E7800
0E3800
1E3C00
1C1C00
1FFC00
3FFE00
3FFE00
380E00
780F00
700700
F00780
ENDCHAR
STARTCHAR 00C1
ENCODING 193
SWIDTH 720 0
DWIDTH 17 0
BBX 17 21 0 0
BITMAP
007800
00E000
01C000
000000
03E000
03E000
03E000
07F000
077000
077000
0E7800
0E3800
1E3C00
1C1C00
1FFC00
3FFE00
3FFE00
380E00
780F00
700700
F00780
ENDCHAR
STARTCHAR 00C2
ENCODING 194
SWIDTH 720 0
DWIDTH 17 0
BBX 17 21 0 0
BITMAP
03E000
07E000
0E7000
000000
03E000
03E000
03E000
07F000
077000
077000
0E7800
0E3800
1E3C00
1C1C00
1FFC00
3FFE00
3FFE00
380E00
780F00
700700
F00780
ENDCHAR
STARTCHAR 00C3
ENCODING 195
SWIDTH 720 0
DWIDTH 17 0
BBX 17 21 0 0
BITMAP
07B000
07F000
0CF000
000000
03E000
03E000
03E000
07F000
077000
077000
0E7800
0E3800
1E3C00
1C1C00
1FFC00
3FFE00
3FFE00
380E00
780F00
700700
F00780
ENDCHAR
STARTCHAR 00C4
ENCODING 196
SWIDTH 720 0
DWIDTH 17 0
BBX 17 21 0 0
BITMAP
1C1C00
1C1C00
1C1800
000000
03E000
03E000
03E000
07F000
077000
077000
0E7800
0E3800
1E3C00
1C1C00
1FFC00
3FFE00
3FFE00
380E00
780F00
700700
F00780
ENDCHAR
STARTCHAR 00C5
ENCODING 197
SWIDTH 720 0
DWIDTH 17 0
BBX 17 21 0 0
BITMAP
01C000
03E000
063000
077000
03E000
03E000
03E000
07F000
077000
077000
0E7800
0E3800
1E3C00
1C1C00
1FFC00
3FFE00
3FFE00
380E00
780F00
700700
F00780
ENDCHAR
STARTCHAR 00C6
ENCODING 198
SWIDTH 1058 0
DWIDTH 25 0
BBX 23 17 1 0
BITMAP
003FFE
007FFE
007FFE
00FE00
01EE00
01CE00
03CE00
078FFC
078FFC
0F0FFC
1FFE00
1FFE00
3FFE00
780E00
780FFE
F00FFE
E00FFE
ENDCHAR
STARTCHAR 00C7
ENCODING 199
SWIDTH 762 0
DWIDTH 18 0
BBX 16 22 1 -5
BITMAP
03F0
0FF8
3FFE
3E3E
780F
F007
F000
E000
E000
E000
F000
F007
780F
7C1E
3FFE
1FFC
07F0
0180
01E0
0060
03E0
03C0
ENDCHAR
STARTCHAR 00C8
ENCODING 200
SWIDTH 592 0
DWIDTH 14 0
BBX 10 21 2 0
BITMAP
3800
1C00
0E00
0000
FFC0
FFC0
FFC0
E000
E000
E000
E000
FFC0
FFC0
FFC0
E000
E000
E000
E000
FFC0
FFC0
FFC0
ENDCHAR
STARTCHAR 00C9
ENCODING 201
SWIDTH 592 0
DWIDTH 14 0
BBX 10 21 2 0
BITMAP
0780
0F00
0E00
0000
FFC0
FFC0
FFC0
E000
E000
E000
E000
FFC0
FFC0
FFC0
E000
E000
E000
E000
FFC0
FFC0
FFC0
ENDCHAR
STARTCHAR 00CA
ENCODING 202
SWIDTH 592 0
DWIDTH 14 0
BBX 10 21 2 0
BITMAP
1E00
3F00
7380
0000
FFC0
FFC0
FFC0
E000
E000
E000
E000
FFC0
FFC0
FFC0
E000
E000
E000
E000
FFC0
FFC0
FFC0
ENDCHAR
STARTCHAR 00CB
ENCODING 203
SWIDTH 592 0
DWIDTH 14 0
BBX 10 21 2 0
BITMAP
7380
73C0
7180
0000
FFC0
FFC0
FFC0
E000
E000
E000
E000
FFC0
FFC0
FFC0
E000
E000
E000
E000
FFC0
FFC0
FFC0
ENDCHAR
STARTCHAR 00CC
ENCODING 204
SWIDTH 296 0
DWIDTH 7 0
BBX 6 21 -1 0
BITMAP
F0
38
1C
00
1C
1C
1C
1C
1C
1C
1C
1C
1C
1C
1C
1C
1C
1C
1C
1C
1C
ENDCHAR
STARTCHAR 00CD
ENCODING 205
SWIDTH 296 0
DWIDTH 7 0
BBX 6 21 2 0
BITMAP
3C
78
E0
00
E0
E0
E0
E0
E0
E0
E0
E0
E0
E0
E0
E0
E0
E0
E0
E0
E0
ENDCHAR
STARTCHAR 00CE
ENCODING 206
SWIDTH 296 0
DWIDTH 7 0
BBX 8 21 0 0
BITMAP
3C
7E
E7
00
38
38
38
38
38
38
38
38
38
38
38
38
38
38
38
38
38
ENDCHAR
STARTCHAR 00CF
ENCODING 207
SWIDTH 296 0
DWIDTH 7 0
BBX 7 21 0 0
BITMAP
EE
EE
E6
00
38
38
38
38
38
38
38
38
38
38
38
38
38
38
38
38
38
ENDCHAR
STARTCHAR 00D0
ENCODING 208
SWIDTH 762 0
DWIDTH 18 0
BBX 17 17 0 0
BITMAP
3FF000
3FFC00
3FFE00
3C3E00
3C0F00
3C0700
3C0780
FF8780
FF8780
3C0780
3C0780
3C0700
3C0F00
3C1E00
3FFE00
3FF800
3FE000
ENDCHAR
STARTCHAR 00D1
ENCODING 209
SWIDTH 762 0
DWIDTH 18 0
BBX 14 21 2 0
BITMAP
0E60
1FE0
19C0
0000
F01C
F81C
FC1C
FC1C
FE1C
FE1C
EF1C
E79C
E79C
E3DC
E1DC
E1FC
E0FC
E07C
E07C
E03C
E03C
ENDCHAR
STARTCHAR 00D2
ENCODING 210
SWIDTH 804 0
DWIDTH 19 0
BBX 17 21 1 0
BITMAP
0F0000
078000
01C000
000000
03E000
0FFC00
3FFE00
3E3F00
780F00
F00780
F00780
E00380
E00380
E00380
F00780
F00780
780F00
7E1F00
3FFE00
0FF800
03E000
ENDCHAR
STARTCHAR 00D3
ENCODING 211
SWIDTH 804 0
DWIDTH 19 0
BBX 17 21 1 0
BITMAP
007800
00E000
01C000
000000
03E000
0FFC00
3FFE00
3E3F00
780F00
F00780
F00780
E00380
E00380
E00380
F00780
F00780
780F00
7E1F00
3FFE00
0FF800
03E000
ENDCHAR
STARTCHAR 00D4
ENCODING 212
SWIDTH 804 0
DWIDTH 19 0
BBX 17 21 1 0
BITMAP
03E000
07F000
063800
000000
03E000
0FFC00
3FFE00
3E3F00
780F00
F00780
F00780
E00380
E00380
E00380
F00780
F00780
780F00
7E1F00
3FFE00
0FF800
03E000
ENDCHAR
STARTCHAR 00D5
ENCODING 213
SWIDTH 804 0
DWIDTH 19 0
BBX 17 21 1 0
BITMAP
079000
07F000
0CF000
000000
03E000
0FFC00
3FFE00
3E3F00
780F00
F00780
F00780
E00380
E00380
E00380
F00780
F00780
780F00
7E1F00
3FFE00
0FF800
03E000
ENDCHAR
STARTCHAR 00D6
ENCODING 214
SWIDTH 804 0
DWIDTH 19 0
BBX 17 21 1 0
BITMAP
1C1C00
1C1C00
1C1C00
000000
03E000
0FFC00
3FFE00
3E3F00
780F00
F00780
F00780
E00380
E00380
E00380
F00780
F00780
780F00
7E1F00
3FFE00
0FF800
03E000
ENDCHAR
STARTCHAR 00D7
ENCODING 215
SWIDTH 550 0
DWIDTH 13 0
BBX 11 12 1 1
BITMAP
4040
E0E0
F1E0
7BC0
3F80
1F00
1F00
3F80
7BC0
F1E0
E0E0
4040
ENDCHAR
STARTCHAR 00D8
ENCODING 216
SWIDTH 804 0
DWIDTH 19 0
BBX 17 19 1 -1
BITMAP
000200
03E700
0FFF00
3FFE00
3E3F00
783F00
F07F80
F0F780
E0E380
E1C380
E38380
F78780
FF0780
7E0F00
7E1F00
3FFE00
7FF800
77E000
200000
ENDCHAR
STARTCHAR 00D9
ENCODING 217
SWIDTH 677 0
DWIDTH 16 0
BBX 13 21 2 0
BITMAP
3C00
1E00
0700
0000
E078
E078
E078
E078
E078
E078
E078
E078
E078
E078
E078
E078
F070
F8F0
7FF0
3FE0
1F80
ENDCHAR
STARTCHAR 00DA
ENCODING 218
SWIDTH 677 0
DWIDTH 16 0
BBX 13 21 2 0
BITMAP
03C0
0780
0700
0000
E078
E078
E078
E078
E078
E078
E078
E078
E078
E078
E078
E078
F070
F8F0
7FF0
3FE0
1F80
ENDCHAR
STARTCHAR 00DB
ENCODING 219
SWIDTH 677 0
DWIDTH 16 0
BBX 13 21 2 0
BITMAP
0F00
1F80
39C0
0000
E078
E078
E078
E078
E078
E078
E078
E078
E078
E078
E078
E078
F070
F8F0
7FF0
3FE0
1F80
ENDCHAR
STARTCHAR 00DC
ENCODING 220
SWIDTH 677 0
DWIDTH 16 0
BBX 13 21 2 0
BITMAP
38E0
39E0
38C0
0000
E078
E078
E078
E078
E078
E078
E078
E078
E078
E078
E078
E078
F070
F8F0
7FF0
3FE0
1F80
ENDCHAR
STARTCHAR 00DD
ENCODING 221
SWIDTH 635 0
DWIDTH 15 0
BBX 14 21 1 0
BITMAP
01E0
0380
0700
0000
E03C
F038
7078
7870
3CF0
3CE0
1FC0
0FC0
0F80
0780
0700
0700
0700
0700
0700
0700
0700
ENDCHAR
STARTCHAR 00DE
ENCODING 222
SWIDTH 592 0
DWIDTH 14 0
BBX 12 17 2 0
BITMAP
E000
E000
E000
FF00
FFC0
FFE0
E1E0
E0F0
E0F0
E0F0
E0E0
FFE0
FFC0
FF00
E000
E000
E000
ENDCHAR
STARTCHAR 00DF
ENCODING 223
SWIDTH 592 0
DWIDTH 14 0
BBX 12 17 2 0
BITMAP
1F00
7F80
7FC0
F1E0
E0E0
E1C0
E3C0
E780
EF00
EF00
E7C0
E7E0
E1F0
EC70
EEF0
EFE0
E7C0
ENDCHAR
STARTCHAR 00E0
ENCODING 224
SWIDTH 550 0
DWIDTH 13 0
BBX 10 17 1 0
BITMAP
3800
3C00
1C00
0E00
0000
1F00
7F80
7FC0
E1C0
01C0
1FC0
7FC0
F1C0
E1C0
E3C0
7FC0
3DC0
ENDCHAR
STARTCHAR 00E1
ENCODING 225
SWIDTH 550 0
DWIDTH 13 0
BBX 10 17 1 0
BITMAP
0380
0700
0600
0E00
0000
1F00
7F80
7FC0
E1C0
01C0
1FC0
7FC0
F1C0
E1C0
E3C0
7FC0
3DC0
ENDCHAR
STARTCHAR 00E2
ENCODING 226
SWIDTH 550 0
DWIDTH 13 0
BBX 10 17 1 0
BITMAP
1E00
1F00
3B00
7380
0000
1F00
7F80
7FC0
E1C0
01C0
1FC0
7FC0
F1C0
E1C0
E3C0
7FC0
3DC0
ENDCHAR
STARTCHAR 00E3
ENCODING 227
SWIDTH 550 0
DWIDTH 13 0
BBX 10 17 1 0
BITMAP
3C80
7F80
6780
0000
0000
1F00
7F80
7FC0
E1C0
01C0
1FC0
7FC0
F1C0
E1C0
E3C0
7FC0
3DC0
ENDCHAR
STARTCHAR 00E4
ENCODING 228
SWIDTH 550 0
DWIDTH 13 0
BBX 10 16 1 0
BITMAP
7380
7380
3180
0000
1F00
7F80
7FC0
E1C0
01C0
1FC0
7FC0
F1C0
E1C0
E3C0
7FC0
3DC0
ENDCHAR
STARTCHAR 00E5
ENCODING 229
SWIDTH 550 0
DWIDTH 13 0
BBX 10 18 1 0
BITMAP
0E00
1F00
3300
1F00
1E00
0000
1F00
7F80
7FC0
E1C0
01C0
1FC0
7FC0
F1C0
E1C0
E3C0
7FC0
3DC0
ENDCHAR
STARTCHAR 00E6
ENCODING 230
SWIDTH 889 0
DWIDTH 21 0
BBX 19 12 1 0
BITMAP
1F1F00
7FFF80
7FFFC0
E1E1C0
01C0E0
1FFFE0
7FFFE0
F1C000
E1E1E0
F3FFC0
7F7F80
3E1F00
ENDCHAR
STARTCHAR 00E7
ENCODING 231
SWIDTH 550 0
DWIDTH 13 0
BBX 11 17 1 -5
BITMAP
1F00
3FC0
7FE0
F0E0
E080
E000
E000
E000
F0E0
7FE0
3FC0
1F80
0600
0F00
0380
1F80
0F00
ENDCHAR
STARTCHAR 00E8
ENCODING 232
SWIDTH 550 0
DWIDTH 13 0
BBX 11 17 1 0
BITMAP
3800
1C00
1C00
0E00
0000
1F00
3FC0
7FC0
F0E0
E0E0
FFE0
FFE0
E000
F0E0
7FE0
3FC0
1F00
ENDCHAR
STARTCHAR 00E9
ENCODING 233
SWIDTH 550 0
DWIDTH 13 0
BBX 11 17 1 0
BITMAP
0380
0780
0700
0E00
0000
1F00
3FC0
7FC0
F0E0
E0E0
FFE0
FFE0
E000
F0E0
7FE0
3FC0
1F00
ENDCHAR
STARTCHAR 00EA
ENCODING 234
SWIDTH 550 0
DWIDTH 13 0
BBX 11 17 1 0
BITMAP
0F00
1F00
3B80
3180
0000
1F00
3FC0
7FC0
F0E0
E0E0
FFE0
FFE0
E000
F0E0
7FE0
3FC0
1F00
ENDCHAR
STARTCHAR 00EB
ENCODING 235
SWIDTH 550 0
DWIDTH 13 0
BBX 11 16 1 0
BITMAP
39C0
3BC0
3180
0000
1F00
3FC0
7FC0
F0E0
E0E0
FFE0
FFE0
E000
F0E0
7FE0
3FC0
1F00
ENDCHAR
STARTCHAR 00EC
ENCODING 236
SWIDTH 296 0
DWIDTH 7 0
BBX 6 17 -1 0
BITMAP
F0
70
38
1C
00
1C
1C
1C
1C
1C
1C
1C
1C
1C
1C
1C
1C
ENDCHAR
STARTCHAR 00ED
ENCODING 237
SWIDTH 296 0
DWIDTH 7 0
BBX 5 17 2 0
BITMAP
38
70
70
E0
00
E0
E0
E0
E0
E0
E0
E0
E0
E0
E0
E0
E0
ENDCHAR
STARTCHAR 00EE
ENCODING 238
SWIDTH 296 0
DWIDTH 7 0
BBX 8 17 -1 0
BITMAP
3C
3E
76
E7
00
1C
1C
1C
1C
1C
1C
1C
1C
1C
1C
1C
1C
ENDCHAR
STARTCHAR 00EF
ENCODING 239
SWIDTH 296 0
DWIDTH 7 0
BBX 7 17 0 0
BITMAP
CE
EE
CE
00
00
38
38
38
38
38
38
38
38
38
38
38
38
ENDCHAR
STARTCHAR 00F0
ENCODING 240
SWIDTH 592 0
DWIDTH 14 0
BBX 12 18 1 0
BITMAP
1800
3E60
3FE0
0FC0
1FC0
19E0
00E0
3FF0
7FF0
F1F0
E0F0
E070
E070
E070
F0E0
7FE0
3FC0
1F00
ENDCHAR
STARTCHAR 00F1
ENCODING 241
SWIDTH 592 0
DWIDTH 14 0
BBX 10 17 2 0
BITMAP
3980
7F80
6F80
0000
0000
EF00
FF80
FFC0
E1C0
E1C0
E1C0
E1C0
E1C0
E1C0
E1C0
E1C0
E1C0
ENDCHAR
STARTCHAR 00F2
ENCODING 242
SWIDTH 592 0
DWIDTH 14 0
BBX 12 17 1 0
BITMAP
3800
1C00
0E00
0E00
0000
1F00
3FC0
7FE0
F0F0
E070
E070
E070
E070
F0E0
7FE0
3FC0
1F00
ENDCHAR
STARTCHAR 00F3
ENCODING 243
SWIDTH 592 0
DWIDTH 14 0
BBX 12 17 1 0
BITMAP
03C0
0380
0700
0600
0000
1F00
3FC0
7FE0
F0F0
E070
E070
E070
E070
F0E0
7FE0
3FC0
1F00
ENDCHAR
STARTCHAR 00F4
ENCODING 244
SWIDTH 592 0
DWIDTH 14 0
BBX 12 17 1 0
BITMAP
0F00
1F00
1B80
39C0
0000
1F00
3FC0
7FE0
F0F0
E070
E070
E070
E070
F0E0
7FE0
3FC0
1F00
ENDCHAR
STARTCHAR 00F5
ENCODING 245
SWIDTH 592 0
DWIDTH 14 0
BBX 12 17 1 0
BITMAP
1CC0
3FC0
3780
0000
0000
1F00
3FC0
7FE0
F0F0
E070
E070
E070
E070
F0E0
7FE0
3FC0
1F00
ENDCHAR
STARTCHAR 00F6
ENCODING 246
SWIDTH 592 0
DWIDTH 14 0
BBX 12 16 1 0
BITMAP
39C0
39C0
39C0
0000
1F00
3FC0
7FE0
F0F0
E070
E070
E070
E070
F0E0
7FE0
3FC0
1F00
ENDCHAR
STARTCHAR 00F7
ENCODING 247
SWIDTH 592 0
DWIDTH 14 0
BBX 12 12 1 1
BITMAP
0600
0F00
0F00
0600
0000
FFF0
FFF0
FFF0
0000
0E00
0F00
0600
ENDCHAR
STARTCHAR 00F8
ENCODING 248
SWIDTH 592 0
DWIDTH 14 0
BBX 12 14 1 -1
BITMAP
0020
1F70
3FE0
7FE0
F1E0
E3F0
E770
EE70
FC70
F8E0
7FE0
7FC0
FF00
4000
ENDCHAR
STARTCHAR 00F9
ENCODING 249
SWIDTH 592 0
DWIDTH 14 0
BBX 10 17 2 0
BITMAP
7800
3800
1C00
0C00
0000
E1C0
E1C0
E1C0
E1C0
E1C0
E1C0
E1C0
E1C0
E1C0
FFC0
7FC0
3DC0
ENDCHAR
STARTCHAR 00FA
ENCODING 250
SWIDTH 592 0
DWIDTH 14 0
BBX 10 17 2 0
BITMAP
0700
0E00
0E00
1C00
0000
E1C0
E1C0
E1C0
E1C0
E1C0
E1C0
E1C0
E1C0
E1C0
FFC0
7FC0
3DC0
ENDCHAR
STARTCHAR 00FB
ENCODING 251
SWIDTH 592 0
DWIDTH 14 0
BBX 10 17 2 0
BITMAP
1E00
3E00
3700
7380
0000
E1C0
E1C0
E1C0
E1C0
E1C0
E1C0
E1C0
E1C0
E1C0
FFC0
7FC0
3DC0
ENDCHAR
STARTCHAR 00FC
ENCODING 252
SWIDTH 592 0
DWIDTH 14 0
BBX 10 17 2 0
BITMAP
7380
7380
7380
0000
0000
E1C0
E1C0
E1C0
E1C0
E1C0
E1C0
E1C0
E1C0
E1C0
FFC0
7FC0
3DC0
ENDCHAR
STARTCHAR 00FD
ENCODING 253
SWIDTH 550 0
DWIDTH 13 0
BBX 13 22 0 -5
BITMAP
01C0
0380
0380
0700
0000
F078
7070
7870
38E0
3CE0
1DE0
1DC0
0FC0
0F80
0780
0700
0700
0F00
0E00
1E00
1C00
1C00
ENDCHAR
STARTCHAR 00FE
ENCODING 254
SWIDTH 592 0
DWIDTH 14 0
BBX 12 22 2 -5
BITMAP
E000
E000
E000
E000
E000
EF80
FFC0
FFE0
F0E0
E0F0
E070
E070
E0E0
F0E0
FFE0
FFC0
EF00
E000
E000
E000
E000
E000
ENDCHAR
STARTCHAR 00FF
ENCODING 255
SWIDTH 550 0
DWIDTH 13 0
BBX 13 22 0 -5
BITMAP
18C0
1DE0
1CE0
0000
0000
F078
7070
7870
38E0
3CE0
1DE0
1DC0
0FC0
0F80
0780
0700
0700
0F00
0E00
1E00
1C00
1C00
ENDCHAR
STARTCHAR 0131
ENCODING 305
SWIDTH 296 0
DWIDTH 7 0
BBX 3 12 2 0
BITMAP
E0
E0
E0
E0
E0
E0
E0
E0
E0
E0
E0
E0
ENDCHAR
STARTCHAR 0141
ENCODING 321
SWIDTH 592 0
DWIDTH 14 0
BBX 13 17 0 0
BITMAP
3C00
3C00
3C00
3C00
3C00
3C80
3F80
3F80
3E00
FC00
FC00
BC00
3C00
3C00
3FF8
3FF8
3FF8
ENDCHAR
STARTCHAR 0142
ENCODING 322
SWIDTH 338 0
DWIDTH 8 0
BBX 7 17 0 0
BITMAP
38
38
38
38
38
38
3A
3E
3E
F8
F8
B8
38
38
38
38
38
ENDCHAR
STARTCHAR 0152
ENCODING 338
SWIDTH 1143 0
DWIDTH 27 0
BBX 24 17 1 0
BITMAP
03F3FF
0FFFFF
3FFFFF
3C1F80
780F80
F00780
F00780
E003FF
E003FF
E003FF
F00380
F00780
780F80
7C1F80
3FFFFF
0FFBFF
03E3FF
ENDCHAR
STARTCHAR 0153
ENCODING 339
SWIDTH 931 0
DWIDTH 22 0
BBX 20 12 1 0
BITMAP
1F0F80
3FDFE0
7FFFF0
F0F870
E0F070
E07FF0
E07FF0
E07000
F0F870
7FFFF0
3FDFE0
1F0F80
ENDCHAR
STARTCHAR 0160
ENCODING 352
SWIDTH 592 0
DWIDTH 14 0
BBX 12 21 1 0
BITMAP
39C0
1F80
0F00
0000
0F80
3FE0
7FE0
70F0
F060
F000
7800
7F80
3FE0
0FF0
00F0
6070
E070
F0F0
7FF0
3FE0
1F80
ENDCHAR
STARTCHAR 0161
ENCODING 353
SWIDTH 465 0
DWIDTH 11 0
BBX 9 17 1 0
BITMAP
6300
7700
3E00
1C00
0000
3E00
7F00
F780
E300
F000
7E00
3F80
0780
E380
F780
7F00
3E00
ENDCHAR
STARTCHAR 0178
ENCODING 376
SWIDTH 635 0
DWIDTH 15 0
BBX 14 21 1 0
BITMAP
3CE0
3CE0
18E0
0000
E03C
F038
7078
7870
3CF0
3CE0
1FC0
0FC0
0F80
0780
0700
0700
0700
0700
0700
0700
0700
ENDCHAR
STARTCHAR 017D
ENCODING 381
SWIDTH 635 0
DWIDTH 15 0
BBX 13 21 1 0
BITMAP
1CE0
0FC0
0780
0000
FFF8
FFF8
FFF8
00F8
01F0
01E0
03C0
0780
0F80
1F00
1E00
3C00
7800
F000
FFF8
FFF8
FFF8
ENDCHAR
STARTCHAR 017E
ENCODING 382
SWIDTH 465 0
DWIDTH 11 0
BBX 9 17 1 0
BITMAP
7380
3700
3E00
1E00
0000
FF80
FF80
FF80
0780
0F00
1E00
3C00
7800
F000
FF80
FF80
FF80
ENDCHAR
STARTCHAR 0192
ENCODING 402
SWIDTH 508 0
DWIDTH 12 0
BBX 13 22 -1 -4
BITMAP
0078
00F8
01F8
01C0
03C0
0380
1FF0
1FF0
1FF0
0780
0700
0700
0700
0700
0F00
0E00
0E00
0E00
1E00
FC00
FC00
F800
ENDCHAR
STARTCHAR 02C6
ENCODING 710
SWIDTH 423 0
DWIDTH 10 0
BBX 8 4 1 13
BITMAP
3C
7C
6E
C7
ENDCHAR
STARTCHAR 02C7
ENCODING 711
SWIDTH 423 0
DWIDTH 10 0
BBX 8 4 1 13
BITMAP
E7
6E
7C
3C
ENDCHAR
STARTCHAR 02C9
ENCODING 713
SWIDTH 338 0
DWIDTH 8 0
BBX 6 2 1 14
BITMAP
FC
FC
ENDCHAR
STARTCHAR 02D8
ENCODING 728
SWIDTH 381 0
DWIDTH 9 0
BBX 7 4 1 13
BITMAP
C6
CE
FC
78
ENDCHAR
STARTCHAR 02D9
ENCODING 729
SWIDTH 211 0
DWIDTH 5 0
BBX 4 4 0 13
BITMAP
70
F0
F0
60
ENDCHAR
STARTCHAR 02DA
ENCODING 730
SWIDTH 296 0
DWIDTH 7 0
BBX 5 5 1 13
BITMAP
70
F8
98
F8
70
ENDCHAR
STARTCHAR 02DB
ENCODING 731
SWIDTH 211 0
DWIDTH 5 0
BBX 4 5 1 -5
BITMAP
60
C0
C0
F0
70
ENDCHAR
STARTCHAR 02DC
ENCODING 732
SWIDTH 381 0
DWIDTH 9 0
BBX 8 3 1 14
BITMAP
73
FF
DE
ENDCHAR
STARTCHAR 02DD
ENCODING 733
SWIDTH 381 0
DWIDTH 9 0
BBX 7 4 1 13
BITMAP
7E
EE
CC
D8
ENDCHAR
STARTCHAR 0394
ENCODING 916
SWIDTH 677 0
DWIDTH 16 0
BBX 16 17 0 0
BITMAP
03C0
03C0
07E0
07E0
07F0
0E70
0E70
0E78
1C38
1C38
3C1C
381C
381E
780E
7FFE
7FFF
FFFF
ENDCHAR
STARTCHAR 03A9
ENCODING 937
SWIDTH 762 0
DWIDTH 18 0
BBX 16 17 1 0
BITMAP
07E0
1FF8
3FFC
7C3E
780F
F00F
F007
E007
F007
F007
700F
781E
3E7C
1E78
FE7F
FE7F
FE7F
ENDCHAR
STARTCHAR 03BC
ENCODING 956
SWIDTH 592 0
DWIDTH 14 0
BBX 10 17 2 -5
BITMAP
E1C0
E1C0
E1C0
E1C0
E1C0
E1C0
E1C0
E1C0
E1C0
FFC0
FFC0
FDC0
E000
E000
E000
E000
E000
ENDCHAR
STARTCHAR 03C0
ENCODING 960
SWIDTH 635 0
DWIDTH 15 0
BBX 13 12 1 0
BITMAP
FFF8
FFF8
FFF8
38E0
38E0
38E0
38E0
38E0
38E0
38F8
3878
3878
ENDCHAR
STARTCHAR 2007
ENCODING 8199
SWIDTH 635 0
DWIDTH 15 0
BBX 0 0 0 0
BITMAP
ENDCHAR
STARTCHAR 2008
ENCODING 8200
SWIDTH 296 0
DWIDTH 7 0
BBX 0 0 0 0
BITMAP
ENDCHAR
STARTCHAR 200B
ENCODING 8203
SWIDTH 0 0
DWIDTH 0 0
BBX 0 0 0 0
BITMAP
ENDCHAR
STARTCHAR 2013
ENCODING 8211
SWIDTH 635 0
DWIDTH 15 0
BBX 13 3 1 5
BITMAP
FFF8
FFF8
FFF8
ENDCHAR
STARTCHAR 2014
ENCODING 8212
SWIDTH 1101 0
DWIDTH 26 0
BBX 22 3 2 5
BITMAP
FFFFFC
FFFFFC
FFFFFC
ENDCHAR
STARTCHAR 2018
ENCODING 8216
SWIDTH 254 0
DWIDTH 6 0
BBX 4 6 1 11
BITMAP
20
60
C0
E0
F0
E0
ENDCHAR
STARTCHAR 2019
ENCODING 8217
SWIDTH 254 0
DWIDTH 6 0
BBX 4 7 1 10
BITMAP
E0
F0
F0
30
20
E0
C0
ENDCHAR
STARTCHAR 201A
ENCODING 8218
SWIDTH 254 0
DWIDTH 6 0
BBX 4 6 1 -3
BITMAP
E0
F0
F0
20
60
C0
ENDCHAR
STARTCHAR 201C
ENCODING 8220
SWIDTH 423 0
DWIDTH 10 0
BBX 8 6 1 11
BITMAP
21
66
C4
E7
FF
E7
ENDCHAR
STARTCHAR 201D
ENCODING 8221
SWIDTH 423 0
DWIDTH 10 0
BBX 8 7 1 10
BITMAP
E7
FF
F7
31
23
E6
C4
ENDCHAR
STARTCHAR 201E
ENCODING 8222
SWIDTH 423 0
DWIDTH 10 0
BBX 8 6 1 -3
BITMAP
E7
FF
F7
23
67
C4
ENDCHAR
STARTCHAR 2020
ENCODING 8224
SWIDTH 423 0
DWIDTH 10 0
BBX 8 13 1 4
BITMAP
18
18
18
18
FF
FF
18
18
18
18
18
18
18
ENDCHAR
STARTCHAR 2021
ENCODING 8225
SWIDTH 465 0
DWIDTH 11 0
BBX 9 17 1 0
BITMAP
1C00
1C00
1C00
1C00
FF80
FF80
1C00
1C00
1C00
1C00
1C00
FF80
FF80
1C00
1C00
1C00
1C00
ENDCHAR
STARTCHAR 2022
ENCODING 8226
SWIDTH 550 0
DWIDTH 13 0
BBX 10 10 1 2
BITMAP
1E00
3F80
7FC0
7FC0
FFC0
FFC0
7FC0
7FC0
3F80
1E00
ENDCHAR
STARTCHAR 2026
ENCODING 8230
SWIDTH 931 0
DWIDTH 22 0
BBX 18 4 2 0
BITMAP
E0C180
F1E3C0
F1E3C0
E0C180
ENDCHAR
STARTCHAR 2030
ENCODING 8240
SWIDTH 1101 0
DWIDTH 26 0
BBX 24 16 1 0
BITMAP
3C0700
7E0E00
E71C00
C71C00
C73800
E77000
7E7000
3CE000
01C000
018FBC
039FFE
0739E7
0638C7
0E19E6
1C1FFE
180F3C
ENDCHAR
STARTCHAR 2039
ENCODING 8249
SWIDTH 296 0
DWIDTH 7 0
BBX 6 10 1 2
BITMAP
1C
38
70
70
E0
E0
70
70
38
1C
ENDCHAR
STARTCHAR 203A
ENCODING 8250
SWIDTH 296 0
DWIDTH 7 0
BBX 5 10 1 2
BITMAP
E0
E0
70
38
38
38
38
70
E0
E0
ENDCHAR
STARTCHAR 2042
ENCODING 8258
SWIDTH 847 0
DWIDTH 20 0
BBX 18 17 1 0
BITMAP
00C000
00C000
06F800
07F800
01E000
03E000
037000
012000
000000
180600
180600
DF37C0
FF3FC0
3C0F00
3C1F00
6E1B80
240900
ENDCHAR
STARTCHAR 2044
ENCODING 8260
SWIDTH 592 0
DWIDTH 14 0
BBX 13 16 0 0
BITMAP
0038
0038
0070
00E0
00E0
01C0
0380
0300
0700
0E00
0C00
1C00
3800
3000
7000
E000
ENDCHAR
STARTCHAR 2051
ENCODING 8273
SWIDTH 423 0
DWIDTH 10 0
BBX 8 17 1 0
BITMAP
18
18
DB
FF
3C
3C
7E
24
00
18
18
DB
FF
3C
3C
7E
24
ENDCHAR
STARTCHAR 2070
ENCODING 8304
SWIDTH 423 0
DWIDTH 10 0
BBX 8 9 1 8
BITMAP
3C
7E
67
E3
E3
E3
E7
7E
3C
ENDCHAR
STARTCHAR 2074
ENCODING 8308
SWIDTH 423 0
DWIDTH 10 0
BBX 8 9 1 8
BITMAP
0E
1E
3E
6E
EE
FF
FF
0E
0E
ENDCHAR
STARTCHAR 2075
ENCODING 8309
SWIDTH 423 0
DWIDTH 10 0
BBX 7 9 1 8
BITMAP
7E
7E
60
7C
FE
06
E6
7E
3C
ENDCHAR
STARTCHAR 2076
ENCODING 8310
SWIDTH 423 0
DWIDTH 10 0
BBX 8 9 1 8
BITMAP
1E
3E
60
FC
FE
E7
E7
7E
3C
ENDCHAR
STARTCHAR 2077
ENCODING 8311
SWIDTH 423 0
DWIDTH 10 0
BBX 7 9 1 8
BITMAP
FE
FE
0E
1C
18
38
38
30
30
ENDCHAR
STARTCHAR 2078
ENCODING 8312
SWIDTH 423 0
DWIDTH 10 0
BBX 8 9 1 8
BITMAP
3C
7E
66
66
3C
7E
E7
7E
3C
ENDCHAR
STARTCHAR 2079
ENCODING 8313
SWIDTH 423 0
DWIDTH 10 0
BBX 8 9 1 8
BITMAP
3C
7E
E6
E7
7F
3E
06
7C
78
ENDCHAR
STARTCHAR 2080
ENCODING 8320
SWIDTH 423 0
DWIDTH 10 0
BBX 8 9 1 -2
BITMAP
3C
7E
67
E3
E3
E3
E7
7E
3C
ENDCHAR
STARTCHAR 2081
ENCODING 8321
SWIDTH 296 0
DWIDTH 7 0
BBX 4 8 1 -2
BITMAP
30
70
F0
30
30
30
30
30
ENDCHAR
STARTCHAR 2082
ENCODING 8322
SWIDTH 381 0
DWIDTH 9 0
BBX 7 8 1 -2
BITMAP
3C
7E
E6
0E
3C
70
FE
FE
ENDCHAR
STARTCHAR 2083
ENCODING 8323
SWIDTH 423 0
DWIDTH 10 0
BBX 7 9 1 -3
BITMAP
7E
7E
0C
38
1E
06
E6
7E
3C
ENDCHAR
STARTCHAR 2084
ENCODING 8324
SWIDTH 423 0
DWIDTH 10 0
BBX 8 8 1 -2
BITMAP
0E
1E
3E
6E
EE
FF
FF
0E
ENDCHAR
STARTCHAR 2085
ENCODING 8325
SWIDTH 423 0
DWIDTH 10 0
BBX 7 9 1 -3
BITMAP
7E
7E
60
7C
FE
06
E6
7E
3C
ENDCHAR
STARTCHAR 2086
ENCODING 8326
SWIDTH 423 0
DWIDTH 10 0
BBX 8 9 1 -3
BITMAP
1E
3E
60
FC
FE
E7
E7
7E
3C
ENDCHAR
STARTCHAR 2087
ENCODING 8327
SWIDTH 423 0
DWIDTH 10 0
BBX 7 8 1 -2
BITMAP
FE
FE
0E
1C
18
38
30
30
ENDCHAR
STARTCHAR 2088
ENCODING 8328
SWIDTH 423 0
DWIDTH 10 0
BBX 8 9 1 -3
BITMAP
3C
7E
66
7E
7E
E7
E7
7E
3C
ENDCHAR
STARTCHAR 2089
ENCODING 8329
SWIDTH 423 0
DWIDTH 10 0
BBX 8 9 1 -3
BITMAP
3C
7E
E6
E7
7F
3E
0E
7C
78
ENDCHAR
STARTCHAR 20AC
ENCODING 8364
SWIDTH 677 0
DWIDTH 16 0
BBX 15 16 1 0
BITMAP
01F8
07FC
0FF8
1F00
1C00
FFF0
FFF0
3800
3800
FFC0
FFC0
1E00
1F00
0FFC
07FE
01F8
ENDCHAR
STARTCHAR 2113
ENCODING 8467
SWIDTH 423 0
DWIDTH 10 0
BBX 8 16 1 0
BITMAP
1E
3F
3F
73
73
77
77
7E
7C
F8
F0
F0
78
3F
3F
1F
ENDCHAR
STARTCHAR 2122
ENCODING 8482
SWIDTH 889 0
DWIDTH 21 0
BBX 18 9 1 8
BITMAP
FEE1C0
FEF1C0
30F3C0
30FBC0
30DBC0
30DEC0
30DEC0
30CEC0
30CCC0
ENDCHAR
STARTCHAR 2126
ENCODING 8486
SWIDTH 762 0
DWIDTH 18 0
BBX 16 17 1 0
BITMAP
07E0
1FF8
3FFC
7C3E
780F
F00F
F007
E007
F007
F007
700F
781E
3E7C
1E78
FE7F
FE7F
FE7F
ENDCHAR
STARTCHAR 2160
ENCODING 8544
SWIDTH 508 0
DWIDTH 12 0
BBX 10 16 1 0
BITMAP
FFC0
FFC0
FFC0
1E00
1E00
1E00
1E00
1E00
1E00
1E00
1E00
1E00
1E00
FFC0
FFC0
FFC0
ENDCHAR
STARTCHAR 2161
ENCODING 8545
SWIDTH 804 0
DWIDTH 19 0
BBX 16 16 1 0
BITMAP
FFFF
FFFF
FFFF
1E38
1E38
1E38
1E38
1E38
1E38
1E38
1E38
1E38
1E38
FFFF
FFFF
FFFF
ENDCHAR
STARTCHAR 2162
ENCODING 8546
SWIDTH 1058 0
DWIDTH 25 0
BBX 23 16 1 0
BITMAP
FFFFFE
FFFFFE
FFFFFE
1E38F0
1E38F0
1E38F0
1E38F0
1E38F0
1E38F0
1E38F0
1E38F0
1E38F0
1E38F0
FFFFFE
FFFFFE
FFFFFE
ENDCHAR
STARTCHAR 2163
ENCODING 8547
SWIDTH 1058 0
DWIDTH 25 0
BBX 23 16 1 0
BITMAP
FFFFFE
FFFFFE
FFFFFE
1CF070
1C70F0
1C70E0
1C78E0
1C38E0
1C39C0
1C3DC0
1C1DC0
1C1FC0
1C1F80
FFFFFE
FFFFFE
FFFFFE
ENDCHAR
STARTCHAR 2164
ENCODING 8548
SWIDTH 804 0
DWIDTH 19 0
BBX 17 16 1 0
BITMAP
FFFF80
FFFF80
FFFF80
1C1C00
1C1C00
1E3C00
0E3800
0E3800
0F3800
077000
077000
077000
07F000
FFFF80
FFFF80
FFFF80
ENDCHAR
STARTCHAR 2165
ENCODING 8549
SWIDTH 1058 0
DWIDTH 25 0
BBX 23 16 1 0
BITMAP
FFFFFE
FFFFFE
FFFFFE
1C1CF0
1C1CF0
1E3CF0
0E38F0
0E38F0
0F38F0
0778F0
0770F0
0770F0
07F0F0
FFFFFE
FFFFFE
FFFFFE
ENDCHAR
STARTCHAR 2166
ENCODING 8550
SWIDTH 1312 0
DWIDTH 31 0
BBX 29 16 1 0
BITMAP
FFFFFFF8
FFFFFFF8
FFFFFFF8
1C1CF1C0
1C1CF1C0
1E3CF1C0
0E38F1C0
0E38F1C0
0F38F1C0
0770F1C0
0770F1C0
0770F1C0
07F0F1C0
FFFFFFF8
FFFFFFF8
FFFFFFF8
ENDCHAR
STARTCHAR 2167
ENCODING 8551
SWIDTH 1609 0
DWIDTH 38 0
BBX 36 16 1 0
BITMAP
FFFFFFFFF0
FFFFFFFFF0
FFFFFFFFF0
1C1CF1C700
1C1CF1C700
1E3CF1C700
0E38F1C700
0E38F1C700
0F38F1C700
0770F1C700
0770F1C700
0770F1C700
07F0F1C700
FFFFFFFFF0
FFFFFFFFF0
FFFFFFFFF0
ENDCHAR
STARTCHAR 2168
ENCODING 8552
SWIDTH 1016 0
DWIDTH 24 0
BBX 22 16 1 0
BITMAP
FFFFFC
FFFFFC
FFFFFC
1C79E0
1C79E0
1C3FC0
1C1F80
1C0F80
1C0F00
1C1F80
1C3FC0
1C39C0
1C79E0
FFFFFC
FFFFFC
FFFFFC
ENDCHAR
STARTCHAR 2169
ENCODING 8553
SWIDTH 762 0
DWIDTH 18 0
BBX 16 16 1 0
BITMAP
FFFF
FFFF
FFFF
1E38
0E78
0FF0
07E0
03E0
03E0
07E0
0FF0
0E78
1E78
FFFF
FFFF
FFFF
ENDCHAR
STARTCHAR 216C
ENCODING 8556
SWIDTH 677 0
DWIDTH 16 0
BBX 13 16 1 0
BITMAP
FF80
FF80
FF80
1C00
1C00
1C00
1C00
1C00
1C00
1C38
1C38
1C38
1C38
FFF8
FFF8
FFF8
ENDCHAR
STARTCHAR 216D
ENCODING 8557
SWIDTH 720 0
DWIDTH 17 0
BBX 15 16 1 0
BITMAP
07CE
1FFE
3FFE
781E
700E
F00E
E000
E000
E000
E000
F00E
701E
7C3E
3FFE
1FFE
07CE
ENDCHAR
STARTCHAR 216E
ENCODING 8558
SWIDTH 762 0
DWIDTH 18 0
BBX 15 16 1 0
BITMAP
FFE0
FFF8
FFFC
1C3C
1C1E
1C0E
1C0E
1C0E
1C0E
1C0E
1C0E
1C1E
1C3C
FFFC
FFF8
FFE0
ENDCHAR
STARTCHAR 216F
ENCODING 8559
SWIDTH 1058 0
DWIDTH 25 0
BBX 23 16 1 0
BITMAP
FE01FE
FF01FE
FF03FE
1F83F0
1F83F0
1F87F0
1DC770
1DC770
1DEE70
1CEE70
1CFE70
1CFC70
1C7C70
FF79FE
FF39FE
FF39FE
ENDCHAR
STARTCHAR 2190
ENCODING 8592
SWIDTH 1058 0
DWIDTH 25 0
BBX 24 10 0 2
BITMAP
040000
0C0000
1C0000
3C0000
7FFFFF
FFFFFF
7FFFFF
1C0000
0C0000
040000
ENDCHAR
STARTCHAR 2191
ENCODING 8593
SWIDTH 465 0
DWIDTH 11 0
BBX 10 22 1 -3
BITMAP
0400
0C00
1E00
3F00
7F80
FFC0
0E00
0E00
0E00
0E00
0E00
0E00
0E00
0E00
0E00
0E00
0E00
0E00
0E00
0E00
0E00
0E00
ENDCHAR
STARTCHAR 2192
ENCODING 8594
SWIDTH 1101 0
DWIDTH 26 0
BBX 24 12 1 1
BITMAP
000080
000040
000070
000078
00007C
FFFFFE
FFFFFF
FFFFFC
000078
000070
000060
000080
ENDCHAR
STARTCHAR 2193
ENCODING 8595
SWIDTH 465 0
DWIDTH 11 0
BBX 11 23 0 -4
BITMAP
0E00
0E00
0E00
0E00
0E00
0E00
0E00
0E00
0E00
0E00
0E00
0E00
0E00
0E00
0E00
0E00
FFE0
7FC0
7F80
3F00
1E00
0E00
0400
ENDCHAR
STARTCHAR 2196
ENCODING 8598
SWIDTH 889 0
DWIDTH 21 0
BBX 16 17 2 0
BITMAP
FE00
FC00
F800
F800
FC00
DE00
8F00
0780
03C0
01E0
00F0
0078
003C
001E
000F
0007
0002
ENDCHAR
STARTCHAR 2197
ENCODING 8599
SWIDTH 762 0
DWIDTH 18 0
BBX 17 17 -1 0
BITMAP
007F80
003F80
001F80
001F80
003F80
007B80
00F180
01E080
03C000
078000
0F0000
1E0000
3C0000
780000
F00000
E00000
400000
ENDCHAR
STARTCHAR 2198
ENCODING 8600
SWIDTH 847 0
DWIDTH 20 0
BBX 17 17 1 0
BITMAP
400000
E00000
700000
380000
1C0000
0E0000
070000
038000
01C000
00E000
007080
003980
001F80
000F80
000F80
001F80
003F80
ENDCHAR
STARTCHAR 2199
ENCODING 8601
SWIDTH 762 0
DWIDTH 18 0
BBX 16 17 1 0
BITMAP
0002
0007
000F
001E
003C
0078
00F0
01E0
03C0
0780
8F00
DE00
FC00
F800
F800
FC00
FE00
ENDCHAR
STARTCHAR 21A9
ENCODING 8617
SWIDTH 847 0
DWIDTH 20 0
BBX 20 15 0 1
BITMAP
003F80
003FC0
003FE0
0000F0
040070
0C0070
1C0070
3C00F0
FFFFE0
FFFFC0
7FFF00
3C0000
1C0000
0C0000
040000
ENDCHAR
STARTCHAR 21B0
ENCODING 8624
SWIDTH 804 0
DWIDTH 19 0
BBX 16 17 1 0
BITMAP
0400
0C00
1C00
3C00
7FFF
FFFF
7FFF
3C07
0C07
0407
0007
0007
0007
0007
0007
0007
0007
ENDCHAR
STARTCHAR 21B1
ENCODING 8625
SWIDTH 762 0
DWIDTH 18 0
BBX 16 17 1 0
BITMAP
0020
0030
0038
003C
FFFE
FFFF
FFFE
E03C
E038
E030
E000
E000
E000
E000
E000
E000
E000
ENDCHAR
STARTCHAR 21B2
ENCODING 8626
SWIDTH 762 0
DWIDTH 18 0
BBX 16 17 0 0
BITMAP
0003
0003
0003
0003
0003
0003
0003
0403
1C03
3C03
7FFF
FFFF
7FFF
3C00
1C00
0C00
0400
ENDCHAR
STARTCHAR 21B3
ENCODING 8627
SWIDTH 847 0
DWIDTH 20 0
BBX 16 17 2 0
BITMAP
C000
C000
C000
C000
C000
C000
C000
C020
C038
C03C
FFFE
FFFF
FFFE
003C
0038
0030
0020
ENDCHAR
STARTCHAR 21B4
ENCODING 8628
SWIDTH 804 0
DWIDTH 19 0
BBX 17 17 1 0
BITMAP
FFFC00
FFFC00
FFFC00
001C00
001C00
001C00
001C00
001C00
001C00
001C00
001C00
00FF80
00FF00
007F00
003E00
001C00
000800
ENDCHAR
STARTCHAR 21C6
ENCODING 8646
SWIDTH 1185 0
DWIDTH 28 0
BBX 24 19 2 -1
BITMAP
040000
0C0000
3C0000
7FFFFF
FFFFFF
FFFFFF
3C0000
1C0000
0C0000
040020
000030
000038
00003C
FFFFFE
FFFFFF
FFFFFE
000038
000030
000020
ENDCHAR
STARTCHAR 2202
ENCODING 8706
SWIDTH 635 0
DWIDTH 15 0
BBX 13 17 1 0
BITMAP
3F00
7FC0
7FE0
41F0
0070
0070
1F78
3FF8
7FF8
F078
E078
E070
E070
F0F0
7FE0
3FC0
1F00
ENDCHAR
STARTCHAR 2206
ENCODING 8710
SWIDTH 677 0
DWIDTH 16 0
BBX 16 17 0 0
BITMAP
03C0
03C0
07E0
07E0
07F0
0E70
0E70
0E78
1C38
1C38
3C1C
381C
381E
780E
7FFE
7FFF
FFFF
ENDCHAR
STARTCHAR 220F
ENCODING 8719
SWIDTH 677 0
DWIDTH 16 0
BBX 12 17 2 0
BITMAP
FFF0
FFF0
FFF0
E070
E070
E070
E070
E070
E070
E070
E070
E070
E070
E070
E070
E070
E070
ENDCHAR
STARTCHAR 2211
ENCODING 8721
SWIDTH 550 0
DWIDTH 13 0
BBX 12 17 1 0
BITMAP
FFF0
FFF0
FFF0
F800
3C00
1E00
0F00
0780
03C0
0780
0F00
1E00
3C00
F800
FFF0
FFF0
FFF0
ENDCHAR
STARTCHAR 2212
ENCODING 8722
SWIDTH 592 0
DWIDTH 14 0
BBX 11 3 1 5
BITMAP
FFE0
FFE0
FFE0
ENDCHAR
STARTCHAR 2215
ENCODING 8725
SWIDTH 423 0
DWIDTH 10 0
BBX 10 16 0 0
BITMAP
01C0
01C0
0380
0380
0700
0700
0600
0E00
0C00
1C00
1800
3800
3000
7000
7000
E000
ENDCHAR
STARTCHAR 2219
ENCODING 8729
SWIDTH 296 0
DWIDTH 7 0
BBX 4 4 1 5
BITMAP
70
70
F0
70
ENDCHAR
STARTCHAR 221A
ENCODING 8730
SWIDTH 677 0
DWIDTH 16 0
BBX 16 21 1 0
BITMAP
001F
001F
003F
0038
0038
0070
0070
0070
E0E0
E0E0
F0E0
71C0
71C0
39C0
3B80
3B80
1F80
1F00
1F00
0F00
0E00
ENDCHAR
STARTCHAR 221E
ENCODING 8734
SWIDTH 847 0
DWIDTH 20 0
BBX 18 9 1 2
BITMAP
3E1E00
7F3F80
FFFF80
E3E1C0
E1E1C0
E3F380
7FFF80
7F3F00
0C0C00
ENDCHAR
STARTCHAR 222B
ENCODING 8747
SWIDTH 338 0
DWIDTH 8 0
BBX 8 22 0 -5
BITMAP
07
0F
1F
1C
1C
1C
1C
1C
1C
1C
1C
1C
1C
1C
1C
1C
1C
1C
3C
F8
F8
F0
ENDCHAR
STARTCHAR 2248
ENCODING 8776
SWIDTH 592 0
DWIDTH 14 0
BBX 12 10 1 2
BITMAP
1000
7C20
FFF0
47F0
01C0
1800
7E20
FFF0
47E0
0180
ENDCHAR
STARTCHAR 2260
ENCODING 8800
SWIDTH 592 0
DWIDTH 14 0
BBX 12 12 1 1
BITMAP
00E0
00E0
FFF0
FFF0
FFF0
0700
0E00
FFF0
FFF0
FFF0
3800
7000
ENDCHAR
STARTCHAR 2264
ENCODING 8804
SWIDTH 550 0
DWIDTH 13 0
BBX 10 12 1 1
BITMAP
0040
03C0
3FC0
FE00
F000
FF00
1FC0
03C0
0000
FFC0
FFC0
FFC0
ENDCHAR
STARTCHAR 2265
ENCODING 8805
SWIDTH 550 0
DWIDTH 13 0
BBX 11 12 1 1
BITMAP
C000
F800
FF00
0FE0
01E0
1FE0
FF00
F800
8000
FFE0
FFE0
FFE0
ENDCHAR
STARTCHAR 22C5
ENCODING 8901
SWIDTH 296 0
DWIDTH 7 0
BBX 4 4 1 5
BITMAP
70
70
F0
70
ENDCHAR
STARTCHAR 24C5
ENCODING 9413
SWIDTH 804 0
DWIDTH 19 0
BBX 17 17 1 0
BITMAP
03F000
0FFC00
1C1E00
300700
63E300
63F180
C33980
C33980
C3F180
C3E180
C30180
E30180
630300
300700
3C0E00
0FFC00
03E000
ENDCHAR
STARTCHAR 25A0
ENCODING 9632
SWIDTH 889 0
DWIDTH 21 0
BBX 17 17 2 0
BITMAP
FFFF80
FFFF80
FFFF80
FFFF80
FFFF80
FFFF80
FFFF80
FFFF80
FFFF80
FFFF80
FFFF80
FFFF80
FFFF80
FFFF80
FFFF80
FFFF80
FFFF80
ENDCHAR
STARTCHAR 25A1
ENCODING 9633
SWIDTH 889 0
DWIDTH 21 0
BBX 17 17 2 0
BITMAP
FFFF80
FFFF80
FFFF80
E00380
E00380
E00380
E00380
E00380
E00380
E00380
E00380
E00380
E00380
E00380
FFFF80
FFFF80
FFFF80
ENDCHAR
STARTCHAR 25B2
ENCODING 9650
SWIDTH 847 0
DWIDTH 20 0
BBX 19 17 0 0
BITMAP
004000
006000
00E000
00F000
01F800
01F800
03FC00
03FC00
07FE00
0FFE00
0FFF00
1FFF80
1FFF80
3FFFC0
7FFFC0
7FFFE0
FFFFE0
ENDCHAR
STARTCHAR 25B3
ENCODING 9651
SWIDTH 847 0
DWIDTH 20 0
BBX 19 17 0 0
BITMAP
004000
006000
00E000
00F000
01F800
01F800
039C00
039C00
070E00
0E0E00
0E0700
1C0780
1C0380
3801C0
7FFFC0
7FFFE0
FFFFE0
ENDCHAR
STARTCHAR 25CA
ENCODING 9674
SWIDTH 635 0
DWIDTH 15 0
BBX 13 17 1 0
BITMAP
0F00
0F80
1F80
1FC0
3DE0
78E0
70F0
F070
E078
F070
70F0
78E0
3DE0
1FC0
1F80
0F80
0F00
ENDCHAR
STARTCHAR 25CB
ENCODING 9675
SWIDTH 804 0
DWIDTH 19 0
BBX 17 17 1 0
BITMAP
03F000
0FFC00
3FFE00
380F00
700700
E00380
E00380
E00380
E00180
E00180
E00380
E00380
700700
3C0F00
3FFE00
0FFC00
03E000
ENDCHAR
STARTCHAR 25CF
ENCODING 9679
SWIDTH 804 0
DWIDTH 19 0
BBX 17 17 1 0
BITMAP
03F000
0FFC00
3FFE00
3FFF00
7FFF00
FFFF80
FFFF80
FFFF80
FFFF80
FFFF80
FFFF80
FFFF80
7FFF00
3FFF00
3FFE00
0FFC00
03E000
ENDCHAR
STARTCHAR 262E
ENCODING 9774
SWIDTH 804 0
DWIDTH 19 0
BBX 17 17 1 0
BITMAP
03F000
0FFC00
3FFE00
39CF00
71C700
E1C380
E1C380
E1C180
E3F180
EFF980
FFFF80
FDDF80
79CF00
39CF00
3FFE00
0FFC00
03E000
ENDCHAR
STARTCHAR 2713
ENCODING 10003
SWIDTH 931 0
DWIDTH 22 0
BBX 21 17 0 0
BITMAP
000010
000038
000038
000070
0000E0
0001C0
000380
000700
200E00
F01E00
783C00
3C7800
1EF000
0FE000
07C000
038000
010000
ENDCHAR
STARTCHAR 2715
ENCODING 10005
SWIDTH 762 0
DWIDTH 18 0
BBX 16 17 1 0
BITMAP
4002
E007
F00F
781E
3C3C
1E78
0FF0
07E0
03C0
07E0
0FF0
1E78
3C3C
781E
F00F
E007
4002
ENDCHAR
STARTCHAR 2780
ENCODING 10112
SWIDTH 804 0
DWIDTH 19 0
BBX 17 17 1 0
BITMAP
03F000
0FFC00
1C1E00
300700
60C300
61C180
C3C180
C3C180
C0C180
C0C180
C0C180
60C180
60C300
300700
1C0E00
0FFC00
03F000
ENDCHAR
STARTCHAR 2781
ENCODING 10113
SWIDTH 804 0
DWIDTH 19 0
BBX 17 17 1 0
BITMAP
03F000
0FFC00
1C1E00
300700
61E300
63F180
C63180
C07180
C1E180
C38180
C7F180
67F180
700300
300700
1C1E00
0FF800
03E000
ENDCHAR
STARTCHAR 2782
ENCODING 10114
SWIDTH 804 0
DWIDTH 19 0
BBX 17 17 1 0
BITMAP
03F000
0FFC00
3C0E00
300700
67F380
67F180
C0E180
C1C180
C0F180
C03180
C63180
67F180
61E300
300700
1C0E00
0FFC00
03F000
ENDCHAR
STARTCHAR 2783
ENCODING 10115
SWIDTH 804 0
DWIDTH 19 0
BBX 17 17 1 0
BITMAP
03F000
0FFC00
1C1E00
300700
60E300
61E180
C3E180
C76180
C66180
CFF180
CFF180
606180
606300
300700
1C0E00
0FFC00
03F000
ENDCHAR
STARTCHAR 2784
ENCODING 10116
SWIDTH 804 0
DWIDTH 19 0
BBX 17 17 1 0
BITMAP
03F000
0FFC00
3C0E00
300700
63F380
63F180
C30180
C7E180
C7F180
C03180
C63180
67F180
63C300
300700
1C0E00
0FFC00
03F000
ENDCHAR
STARTCHAR 2785
ENCODING 10117
SWIDTH 804 0
DWIDTH 19 0
BBX 17 17 1 0
BITMAP
03F000
0FFC00
1C1E00
300700
60F300
63F180
C70180
C6E180
C7F180
C63180
C63180
67F180
61C300
300700
3C0E00
0FFC00
03F000
ENDCHAR
STARTCHAR 2786
ENCODING 10118
SWIDTH 804 0
DWIDTH 19 0
BBX 17 17 1 0
BITMAP
03F000
0FFC00
3C0E00
300700
67F380
E7F180
C07180
C0E180
C0C180
C1C180
C18180
618180
638300
300700
1C0E00
0FFC00
03F000
ENDCHAR
STARTCHAR 2787
ENCODING 10119
SWIDTH 804 0
DWIDTH 19 0
BBX 17 17 1 0
BITMAP
03F000
0FFC00
1C0E00
300700
61E300
67F180
C73180
C37180
C3E180
C73180
C73180
67F180
61E300
300700
1C0E00
0FFC00
03F000
ENDCHAR
STARTCHAR 2788
ENCODING 10120
SWIDTH 804 0
DWIDTH 19 0
BBX 17 17 1 0
BITMAP
03F000
0FFC00
1C1E00
300700
61E300
63F180
C73180
C73980
C7F980
C1F180
C07180
63E180
63C300
300700
3C0E00
0FFC00
03F000
ENDCHAR
STARTCHAR E000
ENCODING 57344
SWIDTH 762 0
DWIDTH 18 0
BBX 17 17 0 0
BITMAP
0FFF80
0FFF80
0FFF80
0E0000
0E0000
0E0000
0E0000
0E0000
0E0000
0E0000
0E0000
FFC000
7F8000
3F0000
1E0000
0E0000
040000
ENDCHAR
STARTCHAR E001
ENCODING 57345
SWIDTH 1101 0
DWIDTH 26 0
BBX 24 17 1 0
BITMAP
007E00
01FF00
03FF00
078010
070038
0E007C
0E00FE
0C01FF
1C03FF
FF8038
3F0038
3E0070
1C0070
0C01E0
007FC0
00FF80
007E00
ENDCHAR
STARTCHAR E002
ENCODING 57346
SWIDTH 974 0
DWIDTH 23 0
BBX 21 17 1 0
BITMAP
03F000
0FF000
1FF000
3C0180
700180
7003C0
E007E0
E00FF0
E01FF8
E00180
E00380
700380
700700
3C0F00
1FFE00
0FFC00
03F000
ENDCHAR
STARTCHAR FB00
ENCODING 64256
SWIDTH 677 0
DWIDTH 16 0
BBX 16 18 0 0
BITMAP
0707
1F1F
1F3F
3C38
3838
3838
FFFF
FFFF
FFFF
3838
3838
3838
3838
3838
3838
3838
3838
3838
ENDCHAR
STARTCHAR FB01
ENCODING 64257
SWIDTH 635 0
DWIDTH 15 0
BBX 14 18 0 0
BITMAP
0738
1F3C
1F3C
3C38
3800
3800
FFF8
FFF8
FFF8
3838
3838
3838
3838
3838
3838
3838
3838
3838
ENDCHAR
STARTCHAR FB02
ENCODING 64258
SWIDTH 635 0
DWIDTH 15 0
BBX 13 17 0 0
BITMAP
0F38
1F38
1F38
3838
3838
FFF8
FFF8
FFF8
3838
3838
3838
3838
3838
3838
3838
3838
3838
ENDCHAR
STARTCHAR FB03
ENCODING 64259
SWIDTH 974 0
DWIDTH 23 0
BBX 21 18 0 0
BITMAP
070730
1F1F78
1F3F78
3C3838
383800
383800
FFFFF8
FFFFF8
FFFFF8
383838
383838
383838
383838
383838
383838
383838
383838
383838
ENDCHAR
STARTCHAR FB04
ENCODING 64260
SWIDTH 974 0
DWIDTH 23 0
BBX 21 17 0 0
BITMAP
0F0F38
1F1F38
1F3F38
3C3838
383838
FFFFF8
FFFFF8
FFFFF8
383838
383838
383838
383838
383838
383838
383838
383838
383838
ENDCHAR
STARTCHAR FEFF
ENCODING 65279
SWIDTH 0 0
DWIDTH 0 0
BBX 0 0 0 0
BITMAP
ENDCHAR
ENDFONT
